SplineFontDB: 3.0
FontName: StrokeInputKeyboard-0.0.0
FullName: Stroke Input Keyboard
FamilyName: Stroke Input Keyboard
Weight: Regular
Copyright: Copyright (c) 2021 Conway\nLicensed under GPL-3.0-only, see <https://www.gnu.org/licenses/>.\n\nModified from a 2015 version of Noto Sans CJK TC, which is:\n\nCopyright (c) 2015 Google and others\nLicensed under Apache-2.0, see <https://www.apache.org/licenses/LICENSE-2.0.html>.
UComments: "2021-6-28: Created with FontForge (http://fontforge.org)"
Version: 0.0.0
ItalicAngle: 0
UnderlinePosition: -100
UnderlineWidth: 50
Ascent: 800
Descent: 200
InvalidEm: 0
LayerCount: 2
Layer: 0 0 "Back" 1
Layer: 1 0 "Fore" 0
XUID: [1021 562 1413051694 6661869]
OS2Version: 0
OS2_WeightWidthSlopeOnly: 0
OS2_UseTypoMetrics: 1
CreationTime: 1624815324
ModificationTime: 1624819304
OS2TypoAscent: 0
OS2TypoAOffset: 1
OS2TypoDescent: 0
OS2TypoDOffset: 1
OS2TypoLinegap: 0
OS2WinAscent: 0
OS2WinAOffset: 1
OS2WinDescent: 0
OS2WinDOffset: 1
HheadAscent: 0
HheadAOffset: 1
HheadDescent: 0
HheadDOffset: 1
OS2Vendor: 'PfEd'
MarkAttachClasses: 1
DEI: 91125
Encoding: UnicodeFull
UnicodeInterp: none
NameList: AGL For New Fonts
DisplaySize: -72
AntiAlias: 1
FitToEm: 0
WinInfo: 8964 12 10
BeginPrivate: 0
EndPrivate
BeginChars: 1114112 121

StartChar: exclam
Encoding: 33 33 0
Width: 323
Flags: HW
LayerCount: 2
Fore
SplineSet
115 749 m 1
 208 749 l 1
 193 221 l 1
 130 221 l 1
 115 749 l 1
161 -13 m 0
 143 -13 127.5 -6.66666666667 114.5 6 c 128
 101.5 18.6666666667 95 35.3333333333 95 56 c 256
 95 76.6666666667 101.5 93.6666666667 114.5 107 c 128
 127.5 120.333333333 143 127 161 127 c 0
 179.666666667 127 195.333333333 120.333333333 208 107 c 128
 220.666666667 93.6666666667 227 76.6666666667 227 56 c 256
 227 35.3333333333 220.666666667 18.6666666667 208 6 c 128
 195.333333333 -6.66666666667 179.666666667 -13 161 -13 c 0
EndSplineSet
EndChar

StartChar: quotedbl
Encoding: 34 34 1
Width: 475
Flags: HW
LayerCount: 2
Fore
SplineSet
92 668 m 1
 90 771 l 1
 186 771 l 1
 184 668 l 1
 166 483 l 1
 110 483 l 1
 92 668 l 1
289 668 m 1
 286 771 l 1
 383 771 l 1
 381 668 l 1
 362 483 l 1
 307 483 l 1
 289 668 l 1
EndSplineSet
EndChar

StartChar: numbersign
Encoding: 35 35 2
Width: 555
Flags: HW
LayerCount: 2
Fore
SplineSet
128 228 m 1
 40 228 l 1
 40 292 l 1
 136 292 l 1
 157 458 l 1
 62 458 l 1
 62 521 l 1
 164 521 l 1
 190 726 l 1
 249 726 l 1
 224 521 l 1
 372 521 l 1
 399 726 l 1
 457 726 l 1
 432 521 l 1
 521 521 l 1
 521 458 l 1
 425 458 l 1
 404 292 l 1
 499 292 l 1
 499 228 l 1
 396 228 l 1
 369 0 l 1
 309 0 l 1
 336 228 l 1
 188 228 l 1
 160 0 l 1
 101 0 l 1
 128 228 l 1
344 292 m 1
 365 458 l 1
 216 458 l 1
 196 292 l 1
 344 292 l 1
EndSplineSet
EndChar

StartChar: dollar
Encoding: 36 36 3
Width: 555
Flags: HW
LayerCount: 2
Fore
SplineSet
424 587 m 1
 403.333333333 607 383.166666667 622.5 363.5 633.5 c 128
 343.833333333 644.5 318.666666667 650 288 650 c 0
 253.333333333 650 225.833333333 640.166666667 205.5 620.5 c 128
 185.166666667 600.833333333 175 574.666666667 175 542 c 0
 175 514.666666667 182.666666667 492.5 198 475.5 c 128
 213.333333333 458.5 232.666666667 443.333333333 256 430 c 128
 279.333333333 416.666666667 304.5 403.833333333 331.5 391.5 c 128
 358.5 379.166666667 383.666666667 364.333333333 407 347 c 128
 430.333333333 329.666666667 449.666666667 308.166666667 465 282.5 c 128
 480.333333333 256.833333333 488 224 488 184 c 0
 488 130.666666667 472.5 86.8333333333 441.5 52.5 c 128
 410.5 18.1666666667 368.333333333 -2.66666666667 315 -10 c 1
 315 -123 l 1
 249 -123 l 1
 249 -12 l 1
 213 -8.66666666667 178.166666667 1 144.5 17 c 128
 110.833333333 33 82 52 58 74 c 1
 101 136 l 1
 124.333333333 116 150.333333333 98.8333333333 179 84.5 c 128
 207.666666667 70.1666666667 239 63 273 63 c 0
 315 63 346.5 73.3333333333 367.5 94 c 128
 388.5 114.666666667 399 142.666666667 399 178 c 0
 399 208.666666667 391.333333333 233.666666667 376 253 c 128
 360.666666667 272.333333333 341.333333333 289.333333333 318 304 c 128
 294.666666667 318.666666667 269.5 332.166666667 242.5 344.5 c 128
 215.5 356.833333333 190.333333333 371.333333333 167 388 c 128
 143.666666667 404.666666667 124.333333333 424.833333333 109 448.5 c 128
 93.6666666667 472.166666667 86 502 86 538 c 0
 86 563.333333333 90 586.5 98 607.5 c 128
 106 628.5 117.166666667 647 131.5 663 c 128
 145.833333333 679 163 692.166666667 183 702.5 c 128
 203 712.833333333 225 719.666666667 249 723 c 1
 249 836 l 1
 315 836 l 1
 315 725 l 1
 351 721 381.333333333 711.333333333 406 696 c 128
 430.666666667 680.666666667 453 662.333333333 473 641 c 1
 424 587 l 1
EndSplineSet
EndChar

StartChar: percent
Encoding: 37 37 4
Width: 921
Flags: HW
LayerCount: 2
Fore
SplineSet
205 284 m 0
 155 284 114.833333333 304.166666667 84.5 344.5 c 128
 54.1666666667 384.833333333 39 442.333333333 39 517 c 0
 39 591 54.1666666667 647.833333333 84.5 687.5 c 128
 114.833333333 727.166666667 155 747 205 747 c 0
 255.666666667 747 296.166666667 727.166666667 326.5 687.5 c 128
 356.833333333 647.833333333 372 591 372 517 c 0
 372 442.333333333 356.833333333 384.833333333 326.5 344.5 c 128
 296.166666667 304.166666667 255.666666667 284 205 284 c 0
631 747 m 1
 693 747 l 1
 288 -13 l 1
 227 -13 l 1
 631 747 l 1
205 341 m 0
 234.333333333 341 258 355.666666667 276 385 c 128
 294 414.333333333 303 458.333333333 303 517 c 256
 303 575.666666667 294 619.333333333 276 648 c 128
 258 676.666666667 234.333333333 691 205 691 c 0
 176.333333333 691 153 676.666666667 135 648 c 128
 117 619.333333333 108 575.666666667 108 517 c 256
 108 458.333333333 117 414.333333333 135 385 c 128
 153 355.666666667 176.333333333 341 205 341 c 0
716 -13 m 256
 666 -13 625.666666667 7 595 47 c 128
 564.333333333 87 549 144.333333333 549 219 c 0
 549 293 564.333333333 349.833333333 595 389.5 c 128
 625.666666667 429.166666667 666 449 716 449 c 256
 766 449 806.166666667 429.166666667 836.5 389.5 c 128
 866.833333333 349.833333333 882 293 882 219 c 0
 882 144.333333333 866.833333333 87 836.5 47 c 128
 806.166666667 7 766 -13 716 -13 c 256
716 43 m 0
 744.666666667 43 768 57.6666666667 786 87 c 128
 804 116.333333333 813 160.333333333 813 219 c 256
 813 277.666666667 804 321.333333333 786 350 c 128
 768 378.666666667 744.666666667 393 716 393 c 0
 686.666666667 393 663 378.666666667 645 350 c 128
 627 321.333333333 618 277.666666667 618 219 c 256
 618 160.333333333 627 116.333333333 645 87 c 128
 663 57.6666666667 686.666666667 43 716 43 c 0
EndSplineSet
EndChar

StartChar: ampersand
Encoding: 38 38 5
Width: 680
Flags: HW
LayerCount: 2
Fore
SplineSet
638 -13 m 1
 612.666666667 -5.66666666667 586 4.83333333333 558 18.5 c 128
 530 32.1666666667 501 49.6666666667 471 71 c 1
 443 45.6666666667 411.666666667 25.3333333333 377 10 c 128
 342.333333333 -5.33333333333 303 -13 259 -13 c 0
 225.666666667 -13 195.333333333 -8 168 2 c 128
 140.666666667 12 117.166666667 26 97.5 44 c 128
 77.8333333333 62 62.6666666667 83.5 52 108.5 c 128
 41.3333333333 133.5 36 160.666666667 36 190 c 0
 36 214.666666667 40 237.166666667 48 257.5 c 128
 56 277.833333333 66.6666666667 296.5 80 313.5 c 128
 93.3333333333 330.5 108.666666667 346.333333333 126 361 c 128
 143.333333333 375.666666667 161.333333333 389.333333333 180 402 c 1
 164.666666667 432 152.833333333 461.333333333 144.5 490 c 128
 136.166666667 518.666666667 132 546.333333333 132 573 c 0
 132 597.666666667 136 620.5 144 641.5 c 128
 152 662.5 163.5 680.833333333 178.5 696.5 c 128
 193.5 712.166666667 211.333333333 724.5 232 733.5 c 128
 252.666666667 742.5 275.666666667 747 301 747 c 0
 347 747 382.5 733.5 407.5 706.5 c 128
 432.5 679.5 445 644.666666667 445 602 c 0
 445 578 440.166666667 556 430.5 536 c 128
 420.833333333 516 408.333333333 497.166666667 393 479.5 c 128
 377.666666667 461.833333333 360 445.333333333 340 430 c 128
 320 414.666666667 300 399.666666667 280 385 c 1
 304 347 332.166666667 310.166666667 364.5 274.5 c 128
 396.833333333 238.833333333 430.666666667 206.666666667 466 178 c 1
 512 238 546.666666667 310.333333333 570 395 c 1
 654 395 l 1
 640 346.333333333 622.5 300 601.5 256 c 128
 580.5 212 555.333333333 171 526 133 c 1
 576 97.6666666667 621.666666667 74.3333333333 663 63 c 1
 638 -13 l 1
211 575 m 0
 211 555 214 534 220 512 c 128
 226 490 234.666666667 467.666666667 246 445 c 1
 262.666666667 456.333333333 278.5 467.666666667 293.5 479 c 128
 308.5 490.333333333 321.833333333 502.333333333 333.5 515 c 128
 345.166666667 527.666666667 354.333333333 541 361 555 c 128
 367.666666667 569 371 584 371 600 c 0
 371 621.333333333 365.666666667 640.166666667 355 656.5 c 128
 344.333333333 672.833333333 326.333333333 681 301 681 c 0
 273 681 251 671 235 651 c 128
 219 631 211 605.666666667 211 575 c 0
125 195 m 0
 125 175 128.666666667 156.666666667 136 140 c 128
 143.333333333 123.333333333 153.5 109 166.5 97 c 128
 179.5 85 194.833333333 75.8333333333 212.5 69.5 c 128
 230.166666667 63.1666666667 249.333333333 60 270 60 c 0
 295.333333333 60 319.666666667 65.3333333333 343 76 c 128
 366.333333333 86.6666666667 388.666666667 101 410 119 c 1
 374 151 339.333333333 185.5 306 222.5 c 128
 272.666666667 259.5 243 298 217 338 c 1
 191 316.666666667 169.166666667 294.666666667 151.5 272 c 128
 133.833333333 249.333333333 125 223.666666667 125 195 c 0
EndSplineSet
EndChar

StartChar: quotesingle
Encoding: 39 39 6
Width: 278
Flags: HW
LayerCount: 2
Fore
SplineSet
92 668 m 1
 90 771 l 1
 186 771 l 1
 184 668 l 1
 166 483 l 1
 110 483 l 1
 92 668 l 1
EndSplineSet
EndChar

StartChar: parenleft
Encoding: 40 40 7
Width: 338
Flags: HW
LayerCount: 2
Fore
SplineSet
239 -197 m 1
 193 -122.333333333 157 -43.6666666667 131 39 c 128
 105 121.666666667 92 212.333333333 92 311 c 0
 92 409 105 499.333333333 131 582 c 128
 157 664.666666667 193 743.333333333 239 818 c 1
 296 792 l 1
 252 720 219.666666667 643.166666667 199 561.5 c 128
 178.333333333 479.833333333 168 396.333333333 168 311 c 256
 168 225.666666667 178.333333333 142 199 60 c 128
 219.666666667 -22 252 -98.6666666667 296 -170 c 1
 239 -197 l 1
EndSplineSet
EndChar

StartChar: parenright
Encoding: 41 41 8
Width: 338
Flags: HW
LayerCount: 2
Fore
SplineSet
43 -170 m 1
 86.3333333333 -98.6666666667 118.5 -22 139.5 60 c 128
 160.5 142 171 225.666666667 171 311 c 256
 171 396.333333333 160.5 479.833333333 139.5 561.5 c 128
 118.5 643.166666667 86.3333333333 720 43 792 c 1
 99 818 l 1
 145.666666667 743.333333333 182 664.666666667 208 582 c 128
 234 499.333333333 247 409 247 311 c 0
 247 212.333333333 234 121.666666667 208 39 c 128
 182 -43.6666666667 145.666666667 -122.333333333 99 -197 c 1
 43 -170 l 1
EndSplineSet
EndChar

StartChar: asterisk
Encoding: 42 42 9
Width: 467
Flags: HW
LayerCount: 2
Fore
SplineSet
110 503 m 1
 173 607 l 1
 64 652 l 1
 82 703 l 1
 196 675 l 1
 206 796 l 1
 260 796 l 1
 270 676 l 1
 384 703 l 1
 401 652 l 1
 292 607 l 1
 356 503 l 1
 312 471 l 1
 233 566 l 1
 154 471 l 1
 110 503 l 1
EndSplineSet
EndChar

StartChar: plus
Encoding: 43 43 10
Width: 555
Flags: HW
LayerCount: 2
Fore
SplineSet
241 335 m 1
 38 335 l 1
 38 403 l 1
 241 403 l 1
 241 621 l 1
 314 621 l 1
 314 403 l 1
 517 403 l 1
 517 335 l 1
 314 335 l 1
 314 116 l 1
 241 116 l 1
 241 335 l 1
EndSplineSet
EndChar

StartChar: comma
Encoding: 44 44 11
Width: 278
Flags: HW
LayerCount: 2
Fore
SplineSet
53 -136 m 1
 84.3333333333 -122.666666667 108.666666667 -104.333333333 126 -81 c 128
 143.333333333 -57.6666666667 152.333333333 -30.6666666667 153 0 c 1
 150.333333333 -0.666666666667 146.666666667 -1 142 -1 c 0
 124.666666667 -1 109.166666667 4.33333333333 95.5 15 c 128
 81.8333333333 25.6666666667 75 41.6666666667 75 63 c 0
 75 82.3333333333 81.8333333333 97.8333333333 95.5 109.5 c 128
 109.166666667 121.166666667 125.333333333 127 144 127 c 0
 168 127 186.833333333 117.5 200.5 98.5 c 128
 214.166666667 79.5 221 53 221 19 c 0
 221 -29 208 -71 182 -107 c 128
 156 -143 120.333333333 -170.666666667 75 -190 c 1
 53 -136 l 1
EndSplineSet
EndChar

StartChar: hyphen
Encoding: 45 45 12
Width: 347
Flags: HW
LayerCount: 2
Fore
SplineSet
46 315 m 1
 302 315 l 1
 302 245 l 1
 46 245 l 1
 46 315 l 1
EndSplineSet
EndChar

StartChar: period
Encoding: 46 46 13
Width: 278
Flags: HW
LayerCount: 2
Fore
SplineSet
139 -13 m 256
 121 -13 105.5 -6.66666666667 92.5 6 c 128
 79.5 18.6666666667 73 35.3333333333 73 56 c 256
 73 76.6666666667 79.5 93.6666666667 92.5 107 c 128
 105.5 120.333333333 121 127 139 127 c 256
 157 127 172.5 120.333333333 185.5 107 c 128
 198.5 93.6666666667 205 76.6666666667 205 56 c 256
 205 35.3333333333 198.5 18.6666666667 185.5 6 c 128
 172.5 -6.66666666667 157 -13 139 -13 c 256
EndSplineSet
EndChar

StartChar: slash
Encoding: 47 47 14
Width: 392
Flags: HW
LayerCount: 2
Fore
SplineSet
311 793 m 1
 377 793 l 1
 78 -179 l 1
 11 -179 l 1
 311 793 l 1
EndSplineSet
EndChar

StartChar: zero
Encoding: 48 48 15
Width: 555
Flags: HW
LayerCount: 2
Fore
SplineSet
278 -13 m 0
 208 -13 152.333333333 18.8333333333 111 82.5 c 128
 69.6666666667 146.166666667 49 241.666666667 49 369 c 256
 49 496.333333333 69.6666666667 591.166666667 111 653.5 c 128
 152.333333333 715.833333333 208 747 278 747 c 0
 347.333333333 747 402.666666667 715.833333333 444 653.5 c 128
 485.333333333 591.166666667 506 496.333333333 506 369 c 256
 506 241.666666667 485.333333333 146.166666667 444 82.5 c 128
 402.666666667 18.8333333333 347.333333333 -13 278 -13 c 0
278 60 m 0
 298.666666667 60 317.5 66 334.5 78 c 128
 351.5 90 366.166666667 108.5 378.5 133.5 c 128
 390.833333333 158.5 400.333333333 190.5 407 229.5 c 128
 413.666666667 268.5 417 315 417 369 c 0
 417 422.333333333 413.666666667 468.166666667 407 506.5 c 128
 400.333333333 544.833333333 390.833333333 576.333333333 378.5 601 c 128
 366.166666667 625.666666667 351.5 643.833333333 334.5 655.5 c 128
 317.5 667.166666667 298.666666667 673 278 673 c 256
 257.333333333 673 238.333333333 667.166666667 221 655.5 c 128
 203.666666667 643.833333333 188.833333333 625.666666667 176.5 601 c 128
 164.166666667 576.333333333 154.666666667 544.833333333 148 506.5 c 128
 141.333333333 468.166666667 138 422.333333333 138 369 c 0
 138 261 150.833333333 182.5 176.5 133.5 c 128
 202.166666667 84.5 236 60 278 60 c 0
EndSplineSet
EndChar

StartChar: one
Encoding: 49 49 16
Width: 555
Flags: HW
LayerCount: 2
Fore
SplineSet
88 76 m 1
 251 76 l 1
 251 623 l 1
 121 623 l 1
 121 681 l 1
 153.666666667 687 182.166666667 694.333333333 206.5 703 c 128
 230.833333333 711.666666667 253 721.666666667 273 733 c 1
 343 733 l 1
 343 76 l 1
 490 76 l 1
 490 0 l 1
 88 0 l 1
 88 76 l 1
EndSplineSet
EndChar

StartChar: two
Encoding: 50 50 17
Width: 555
Flags: HW
LayerCount: 2
Fore
SplineSet
44 54 m 1
 101.333333333 104 151.166666667 151 193.5 195 c 128
 235.833333333 239 270.833333333 280.333333333 298.5 319 c 128
 326.166666667 357.666666667 346.666666667 394.166666667 360 428.5 c 128
 373.333333333 462.833333333 380 495.666666667 380 527 c 0
 380 569 369 603.666666667 347 631 c 128
 325 658.333333333 291 672 245 672 c 0
 215 672 187.166666667 663.833333333 161.5 647.5 c 128
 135.833333333 631.166666667 113 611 93 587 c 1
 40 639 l 1
 70 671.666666667 101.833333333 697.833333333 135.5 717.5 c 128
 169.166666667 737.166666667 209.333333333 747 256 747 c 0
 288.666666667 747 318.166666667 741.833333333 344.5 731.5 c 128
 370.833333333 721.166666667 393.166666667 706.5 411.5 687.5 c 128
 429.833333333 668.5 444 645.666666667 454 619 c 128
 464 592.333333333 469 562.666666667 469 530 c 0
 469 493.333333333 462.166666667 456.5 448.5 419.5 c 128
 434.833333333 382.5 415.333333333 345 390 307 c 128
 364.666666667 269 334.5 230.5 299.5 191.5 c 128
 264.5 152.5 225.333333333 112.666666667 182 72 c 1
 201.333333333 73.3333333333 221.5 74.8333333333 242.5 76.5 c 128
 263.5 78.1666666667 283.333333333 79 302 79 c 2
 505 79 l 1
 505 0 l 1
 44 0 l 1
 44 54 l 1
EndSplineSet
EndChar

StartChar: three
Encoding: 51 51 18
Width: 555
Flags: HW
LayerCount: 2
Fore
SplineSet
264 -13 m 0
 235.333333333 -13 209.166666667 -10.1666666667 185.5 -4.5 c 128
 161.833333333 1.16666666667 140.5 8.5 121.5 17.5 c 128
 102.5 26.5 85.3333333333 37.1666666667 70 49.5 c 128
 54.6666666667 61.8333333333 41 74.3333333333 29 87 c 1
 75 147 l 1
 96.3333333333 124.333333333 121.666666667 104.666666667 151 88 c 128
 180.333333333 71.3333333333 215.666666667 63 257 63 c 0
 279 63 299 66.1666666667 317 72.5 c 128
 335 78.8333333333 350.666666667 87.8333333333 364 99.5 c 128
 377.333333333 111.166666667 387.666666667 125.5 395 142.5 c 128
 402.333333333 159.5 406 178.333333333 406 199 c 0
 406 221 402 241 394 259 c 128
 386 277 373 292.5 355 305.5 c 128
 337 318.5 313.5 328.5 284.5 335.5 c 128
 255.5 342.5 220 346 178 346 c 1
 178 416 l 1
 216 416 247.833333333 419.666666667 273.5 427 c 128
 299.166666667 434.333333333 320 444.166666667 336 456.5 c 128
 352 468.833333333 363.5 483.5 370.5 500.5 c 128
 377.5 517.5 381 536 381 556 c 0
 381 592 369.833333333 620.333333333 347.5 641 c 128
 325.166666667 661.666666667 295 672.666666667 257 674 c 0
 227 672.666666667 199.333333333 665.333333333 174 652 c 128
 148.666666667 638.666666667 125.666666667 621.666666667 105 601 c 1
 56 659 l 1
 84 684.333333333 114.5 705.333333333 147.5 722 c 128
 180.5 738.666666667 218.333333333 747 261 747 c 0
 291.666666667 747 320 743 346 735 c 128
 372 727 394.5 715.166666667 413.5 699.5 c 128
 432.5 683.833333333 447.333333333 664.5 458 641.5 c 128
 468.666666667 618.5 474 592.333333333 474 563 c 0
 474 518.333333333 462 481.333333333 438 452 c 128
 414 422.666666667 382.333333333 400.666666667 343 386 c 1
 343 382 l 1
 365 377.333333333 385.5 369.666666667 404.5 359 c 128
 423.5 348.333333333 440 335 454 319 c 128
 468 303 479 284.833333333 487 264.5 c 128
 495 244.166666667 499 221.333333333 499 196 c 0
 499 163.333333333 492.833333333 134 480.5 108 c 128
 468.166666667 82 451.333333333 60 430 42 c 128
 408.666666667 24 383.833333333 10.3333333333 355.5 1 c 128
 327.166666667 -8.33333333333 296.666666667 -13 264 -13 c 0
EndSplineSet
EndChar

StartChar: four
Encoding: 52 52 19
Width: 555
Flags: HW
LayerCount: 2
Fore
SplineSet
523 202 m 1
 426 202 l 1
 426 0 l 1
 339 0 l 1
 339 202 l 1
 20 202 l 1
 20 262 l 1
 325 733 l 1
 426 733 l 1
 426 275 l 1
 523 275 l 1
 523 202 l 1
339 275 m 1
 339 500 l 2
 339 509.333333333 339.166666667 519.666666667 339.5 531 c 128
 339.833333333 542.333333333 340.333333333 554 341 566 c 128
 341.666666667 578 342.333333333 589.833333333 343 601.5 c 128
 343.666666667 613.166666667 344.333333333 623.666666667 345 633 c 1
 341 633 l 1
 331.666666667 615 322.166666667 597 312.5 579 c 128
 302.833333333 561 292.666666667 543 282 525 c 2
 115 275 l 1
 339 275 l 1
EndSplineSet
EndChar

StartChar: five
Encoding: 53 53 20
Width: 555
Flags: HW
LayerCount: 2
Fore
SplineSet
261 -13 m 0
 232.333333333 -13 206.5 -10.1666666667 183.5 -4.5 c 128
 160.5 1.16666666667 139.5 8.5 120.5 17.5 c 128
 101.5 26.5 84.3333333333 36.8333333333 69 48.5 c 128
 53.6666666667 60.1666666667 40 72 28 84 c 1
 73 144 l 1
 83.6666666667 133.333333333 95 123.166666667 107 113.5 c 128
 119 103.833333333 132.333333333 95.3333333333 147 88 c 128
 161.666666667 80.6666666667 177.666666667 74.6666666667 195 70 c 128
 212.333333333 65.3333333333 231.666666667 63 253 63 c 256
 274.333333333 63 294.5 67 313.5 75 c 128
 332.5 83 349 94.5 363 109.5 c 128
 377 124.5 388.166666667 142.666666667 396.5 164 c 128
 404.833333333 185.333333333 409 209.333333333 409 236 c 0
 409 288.666666667 395.166666667 329.666666667 367.5 359 c 128
 339.833333333 388.333333333 303 403 257 403 c 0
 232.333333333 403 211.166666667 399.333333333 193.5 392 c 128
 175.833333333 384.666666667 156.333333333 374 135 360 c 1
 86 390 l 1
 109 733 l 1
 466 733 l 1
 466 655 l 1
 189 655 l 1
 171 443 l 1
 187 452.333333333 203.666666667 459.5 221 464.5 c 128
 238.333333333 469.5 258 472 280 472 c 0
 310.666666667 472 339.333333333 467.333333333 366 458 c 128
 392.666666667 448.666666667 416 434.5 436 415.5 c 128
 456 396.5 471.833333333 372.333333333 483.5 343 c 128
 495.166666667 313.666666667 501 279 501 239 c 256
 501 199 494.333333333 163.333333333 481 132 c 128
 467.666666667 100.666666667 449.833333333 74.1666666667 427.5 52.5 c 128
 405.166666667 30.8333333333 379.666666667 14.5 351 3.5 c 128
 322.333333333 -7.5 292.333333333 -13 261 -13 c 0
EndSplineSet
EndChar

StartChar: six
Encoding: 54 54 21
Width: 555
Flags: HW
LayerCount: 2
Fore
SplineSet
448 615 m 1
 433.333333333 632.333333333 415.666666667 646 395 656 c 128
 374.333333333 666 352.666666667 671 330 671 c 0
 305.333333333 671 281.666666667 665.833333333 259 655.5 c 128
 236.333333333 645.166666667 216.5 628 199.5 604 c 128
 182.5 580 168.833333333 548.666666667 158.5 510 c 128
 148.166666667 471.333333333 142.333333333 423.333333333 141 366 c 1
 163.666666667 394 189.833333333 415.833333333 219.5 431.5 c 128
 249.166666667 447.166666667 278.666666667 455 308 455 c 0
 370.666666667 455 420.166666667 435.833333333 456.5 397.5 c 128
 492.833333333 359.166666667 511 301.666666667 511 225 c 0
 511 189.666666667 505.333333333 157.333333333 494 128 c 128
 482.666666667 98.6666666667 467.5 73.5 448.5 52.5 c 128
 429.5 31.5 407.333333333 15.3333333333 382 4 c 128
 356.666666667 -7.33333333333 329.666666667 -13 301 -13 c 0
 265.666666667 -13 233 -5.5 203 9.5 c 128
 173 24.5 147.166666667 47.1666666667 125.5 77.5 c 128
 103.833333333 107.833333333 86.8333333333 145.666666667 74.5 191 c 128
 62.1666666667 236.333333333 56 289.333333333 56 350 c 0
 56 422 63.5 483.166666667 78.5 533.5 c 128
 93.5 583.833333333 113.5 624.833333333 138.5 656.5 c 128
 163.5 688.166666667 192.333333333 711.166666667 225 725.5 c 128
 257.666666667 739.833333333 291.666666667 747 327 747 c 0
 365 747 398 739.833333333 426 725.5 c 128
 454 711.166666667 478 693.333333333 498 672 c 1
 448 615 l 1
301 58 m 0
 318.333333333 58 334.666666667 62 350 70 c 128
 365.333333333 78 378.5 89.3333333333 389.5 104 c 128
 400.5 118.666666667 409.166666667 136.333333333 415.5 157 c 128
 421.833333333 177.666666667 425 200.333333333 425 225 c 0
 425 275 414.166666667 314.5 392.5 343.5 c 128
 370.833333333 372.5 337.666666667 387 293 387 c 0
 269.666666667 387 244.833333333 379.833333333 218.5 365.5 c 128
 192.166666667 351.166666667 167 327 143 293 c 1
 148.333333333 216.333333333 164.5 158 191.5 118 c 128
 218.5 78 255 58 301 58 c 0
EndSplineSet
EndChar

StartChar: seven
Encoding: 55 55 22
Width: 555
Flags: HW
LayerCount: 2
Fore
SplineSet
198 0 m 1
 201.333333333 69.3333333333 207.166666667 133.166666667 215.5 191.5 c 128
 223.833333333 249.833333333 236 305 252 357 c 128
 268 409 288.333333333 459.166666667 313 507.5 c 128
 337.666666667 555.833333333 368 605 404 655 c 1
 49 655 l 1
 49 733 l 1
 508 733 l 1
 508 678 l 1
 465.333333333 622.666666667 430.5 569.666666667 403.5 519 c 128
 376.5 468.333333333 355.333333333 416.5 340 363.5 c 128
 324.666666667 310.5 313.666666667 254.666666667 307 196 c 128
 300.333333333 137.333333333 295.666666667 72 293 0 c 1
 198 0 l 1
EndSplineSet
EndChar

StartChar: eight
Encoding: 56 56 23
Width: 555
Flags: HW
LayerCount: 2
Fore
SplineSet
279 -13 m 0
 245 -13 213.833333333 -8.16666666667 185.5 1.5 c 128
 157.166666667 11.1666666667 132.5 24.6666666667 111.5 42 c 128
 90.5 59.3333333333 74.1666666667 80 62.5 104 c 128
 50.8333333333 128 45 154 45 182 c 0
 45 206.666666667 48.8333333333 229.333333333 56.5 250 c 128
 64.1666666667 270.666666667 74.3333333333 289.5 87 306.5 c 128
 99.6666666667 323.5 114.166666667 338.5 130.5 351.5 c 128
 146.833333333 364.5 163.333333333 375.333333333 180 384 c 1
 180 389 l 1
 152.666666667 407.666666667 129.333333333 430.833333333 110 458.5 c 128
 90.6666666667 486.166666667 81 519.333333333 81 558 c 0
 81 586 86 611.5 96 634.5 c 128
 106 657.5 120 677 138 693 c 128
 156 709 177.333333333 721.5 202 730.5 c 128
 226.666666667 739.5 253.333333333 744 282 744 c 0
 313.333333333 744 341.333333333 739.166666667 366 729.5 c 128
 390.666666667 719.833333333 411.666666667 706.5 429 689.5 c 128
 446.333333333 672.5 459.666666667 652.166666667 469 628.5 c 128
 478.333333333 604.833333333 483 579 483 551 c 0
 483 531.666666667 480 513.166666667 474 495.5 c 128
 468 477.833333333 460.166666667 461.5 450.5 446.5 c 128
 440.833333333 431.5 430.333333333 417.833333333 419 405.5 c 128
 407.666666667 393.166666667 396.333333333 382.666666667 385 374 c 1
 385 369 l 1
 401 359.666666667 416.5 349.166666667 431.5 337.5 c 128
 446.5 325.833333333 459.666666667 312.166666667 471 296.5 c 128
 482.333333333 280.833333333 491.5 263.333333333 498.5 244 c 128
 505.5 224.666666667 509 202.333333333 509 177 c 0
 509 150.333333333 503.5 125.333333333 492.5 102 c 128
 481.5 78.6666666667 466 58.5 446 41.5 c 128
 426 24.5 401.833333333 11.1666666667 373.5 1.5 c 128
 345.166666667 -8.16666666667 313.666666667 -13 279 -13 c 0
329 398 m 1
 379.666666667 442.666666667 405 492 405 546 c 0
 405 564 402.166666667 581 396.5 597 c 128
 390.833333333 613 382.666666667 626.833333333 372 638.5 c 128
 361.333333333 650.166666667 348.333333333 659.5 333 666.5 c 128
 317.666666667 673.5 300 677 280 677 c 0
 246 677 218.166666667 666.166666667 196.5 644.5 c 128
 174.833333333 622.833333333 164 594 164 558 c 0
 164 536 168.5 516.833333333 177.5 500.5 c 128
 186.5 484.166666667 198.666666667 469.833333333 214 457.5 c 128
 229.333333333 445.166666667 247 434.333333333 267 425 c 128
 287 415.666666667 307.666666667 406.666666667 329 398 c 1
281 55 m 0
 323 55 357 66.5 383 89.5 c 128
 409 112.5 422 142.333333333 422 179 c 0
 422 203.666666667 416.833333333 224.666666667 406.5 242 c 128
 396.166666667 259.333333333 382 274.833333333 364 288.5 c 128
 346 302.166666667 325.333333333 314.166666667 302 324.5 c 128
 278.666666667 334.833333333 254 345.333333333 228 356 c 1
 198 336.666666667 173.833333333 313 155.5 285 c 128
 137.166666667 257 128 225.333333333 128 190 c 0
 128 170.666666667 131.833333333 152.666666667 139.5 136 c 128
 147.166666667 119.333333333 157.833333333 105 171.5 93 c 128
 185.166666667 81 201.333333333 71.6666666667 220 65 c 128
 238.666666667 58.3333333333 259 55 281 55 c 0
EndSplineSet
EndChar

StartChar: nine
Encoding: 57 57 24
Width: 555
Flags: HW
LayerCount: 2
Fore
SplineSet
108 119 m 1
 123.333333333 101.666666667 141.833333333 88 163.5 78 c 128
 185.166666667 68 207.666666667 63 231 63 c 0
 255 63 277.666666667 68.3333333333 299 79 c 128
 320.333333333 89.6666666667 339.333333333 107 356 131 c 128
 372.666666667 155 386.166666667 186.5 396.5 225.5 c 128
 406.833333333 264.5 413 312.333333333 415 369 c 1
 393 341 367.166666667 318.833333333 337.5 302.5 c 128
 307.833333333 286.166666667 277.333333333 278 246 278 c 0
 215.333333333 278 187.666666667 282.833333333 163 292.5 c 128
 138.333333333 302.166666667 117.166666667 316.833333333 99.5 336.5 c 128
 81.8333333333 356.166666667 68.1666666667 380.333333333 58.5 409 c 128
 48.8333333333 437.666666667 44 471 44 509 c 0
 44 544.333333333 49.6666666667 576.666666667 61 606 c 128
 72.3333333333 635.333333333 87.5 660.5 106.5 681.5 c 128
 125.5 702.5 147.666666667 718.666666667 173 730 c 128
 198.333333333 741.333333333 225.333333333 747 254 747 c 0
 289.333333333 747 322 739.666666667 352 725 c 128
 382 710.333333333 408 688.5 430 659.5 c 128
 452 630.5 469.166666667 594.166666667 481.5 550.5 c 128
 493.833333333 506.833333333 500 456 500 398 c 0
 500 324 492.666666667 260.833333333 478 208.5 c 128
 463.333333333 156.166666667 443.666666667 113.666666667 419 81 c 128
 394.333333333 48.3333333333 366 24.5 334 9.5 c 128
 302 -5.5 268.666666667 -13 234 -13 c 0
 194 -13 159.833333333 -5.83333333333 131.5 8.5 c 128
 103.166666667 22.8333333333 78.6666666667 40.6666666667 58 62 c 1
 108 119 l 1
261 346 m 0
 285.666666667 346 311.166666667 353.5 337.5 368.5 c 128
 363.833333333 383.5 389.333333333 408.666666667 414 444 c 1
 408.666666667 520 392.5 577.5 365.5 616.5 c 128
 338.5 655.5 301.333333333 675 254 675 c 0
 236.666666667 675 220.333333333 671 205 663 c 128
 189.666666667 655 176.5 643.833333333 165.5 629.5 c 128
 154.5 615.166666667 145.833333333 597.833333333 139.5 577.5 c 128
 133.166666667 557.166666667 130 534.333333333 130 509 c 0
 130 459 140.833333333 419.333333333 162.5 390 c 128
 184.166666667 360.666666667 217 346 261 346 c 0
EndSplineSet
EndChar

StartChar: colon
Encoding: 58 58 25
Width: 278
Flags: HW
LayerCount: 2
Fore
SplineSet
139 390 m 256
 121 390 105.5 396.5 92.5 409.5 c 128
 79.5 422.5 73 439 73 459 c 0
 73 480.333333333 79.5 497.5 92.5 510.5 c 128
 105.5 523.5 121 530 139 530 c 256
 157 530 172.5 523.5 185.5 510.5 c 128
 198.5 497.5 205 480.333333333 205 459 c 0
 205 439 198.5 422.5 185.5 409.5 c 128
 172.5 396.5 157 390 139 390 c 256
139 -13 m 256
 121 -13 105.5 -6.66666666667 92.5 6 c 128
 79.5 18.6666666667 73 35.3333333333 73 56 c 256
 73 76.6666666667 79.5 93.6666666667 92.5 107 c 128
 105.5 120.333333333 121 127 139 127 c 256
 157 127 172.5 120.333333333 185.5 107 c 128
 198.5 93.6666666667 205 76.6666666667 205 56 c 256
 205 35.3333333333 198.5 18.6666666667 185.5 6 c 128
 172.5 -6.66666666667 157 -13 139 -13 c 256
EndSplineSet
EndChar

StartChar: semicolon
Encoding: 59 59 26
Width: 278
Flags: HW
LayerCount: 2
Fore
SplineSet
139 390 m 256
 121 390 105.5 396.5 92.5 409.5 c 128
 79.5 422.5 73 439 73 459 c 0
 73 480.333333333 79.5 497.5 92.5 510.5 c 128
 105.5 523.5 121 530 139 530 c 256
 157 530 172.5 523.5 185.5 510.5 c 128
 198.5 497.5 205 480.333333333 205 459 c 0
 205 439 198.5 422.5 185.5 409.5 c 128
 172.5 396.5 157 390 139 390 c 256
53 -136 m 1
 84.3333333333 -122.666666667 108.666666667 -104.333333333 126 -81 c 128
 143.333333333 -57.6666666667 152.333333333 -30.6666666667 153 0 c 1
 150.333333333 -0.666666666667 146.666666667 -1 142 -1 c 0
 124.666666667 -1 109.166666667 4.33333333333 95.5 15 c 128
 81.8333333333 25.6666666667 75 41.6666666667 75 63 c 0
 75 82.3333333333 81.8333333333 97.8333333333 95.5 109.5 c 128
 109.166666667 121.166666667 125.333333333 127 144 127 c 0
 168 127 186.833333333 117.5 200.5 98.5 c 128
 214.166666667 79.5 221 53 221 19 c 0
 221 -29 208 -71 182 -107 c 128
 156 -143 120.333333333 -170.666666667 75 -190 c 1
 53 -136 l 1
EndSplineSet
EndChar

StartChar: less
Encoding: 60 60 27
Width: 555
Flags: HW
LayerCount: 2
Fore
SplineSet
38 334 m 1
 38 407 l 1
 517 595 l 1
 517 516 l 1
 131 373 l 1
 131 369 l 1
 517 226 l 1
 517 146 l 1
 38 334 l 1
EndSplineSet
EndChar

StartChar: equal
Encoding: 61 61 28
Width: 555
Flags: HW
LayerCount: 2
Fore
SplineSet
38 522 m 1
 517 522 l 1
 517 454 l 1
 38 454 l 1
 38 522 l 1
38 283 m 1
 517 283 l 1
 517 215 l 1
 38 215 l 1
 38 283 l 1
EndSplineSet
EndChar

StartChar: greater
Encoding: 62 62 29
Width: 555
Flags: HW
LayerCount: 2
Fore
SplineSet
38 226 m 1
 424 369 l 1
 424 373 l 1
 38 516 l 1
 38 595 l 1
 517 407 l 1
 517 334 l 1
 38 146 l 1
 38 226 l 1
EndSplineSet
EndChar

StartChar: question
Encoding: 63 63 30
Width: 474
Flags: HW
LayerCount: 2
Fore
SplineSet
178 221 m 1
 174 250.333333333 175.166666667 276.666666667 181.5 300 c 128
 187.833333333 323.333333333 196.666666667 344.833333333 208 364.5 c 128
 219.333333333 384.166666667 232.166666667 402.666666667 246.5 420 c 128
 260.833333333 437.333333333 274.333333333 454.333333333 287 471 c 128
 299.666666667 487.666666667 310.333333333 504.666666667 319 522 c 128
 327.666666667 539.333333333 332 558 332 578 c 0
 332 608 323 633.5 305 654.5 c 128
 287 675.5 260 686 224 686 c 0
 198.666666667 686 175.166666667 680.333333333 153.5 669 c 128
 131.833333333 657.666666667 112.333333333 642 95 622 c 1
 43 670 l 1
 66.3333333333 696.666666667 93.8333333333 718.666666667 125.5 736 c 128
 157.166666667 753.333333333 193.333333333 762 234 762 c 0
 290.666666667 762 336 746 370 714 c 128
 404 682 421 638.666666667 421 584 c 0
 421 559.333333333 416.666666667 537 408 517 c 128
 399.333333333 497 388.5 477.833333333 375.5 459.5 c 128
 362.5 441.166666667 348.5 423.333333333 333.5 406 c 128
 318.5 388.666666667 305 370.666666667 293 352 c 128
 281 333.333333333 271.666666667 313.333333333 265 292 c 128
 258.333333333 270.666666667 256.333333333 247 259 221 c 1
 178 221 l 1
221 -13 m 0
 203 -13 187.5 -6.66666666667 174.5 6 c 128
 161.5 18.6666666667 155 35.3333333333 155 56 c 256
 155 76.6666666667 161.5 93.6666666667 174.5 107 c 128
 187.5 120.333333333 203 127 221 127 c 0
 239.666666667 127 255.5 120.333333333 268.5 107 c 128
 281.5 93.6666666667 288 76.6666666667 288 56 c 256
 288 35.3333333333 281.5 18.6666666667 268.5 6 c 128
 255.5 -6.66666666667 239.666666667 -13 221 -13 c 0
EndSplineSet
EndChar

StartChar: at
Encoding: 64 64 31
Width: 946
Flags: HW
LayerCount: 2
Fore
SplineSet
450 -173 m 0
 395.333333333 -173 344 -164.333333333 296 -147 c 128
 248 -129.666666667 206.333333333 -104.166666667 171 -70.5 c 128
 135.666666667 -36.8333333333 107.666666667 5 87 55 c 128
 66.3333333333 105 56 162.333333333 56 227 c 0
 56 301.666666667 68.6666666667 369.5 94 430.5 c 128
 119.333333333 491.5 153.333333333 543.5 196 586.5 c 128
 238.666666667 629.5 288.166666667 662.833333333 344.5 686.5 c 128
 400.833333333 710.166666667 460 722 522 722 c 0
 578 722 628.666666667 713 674 695 c 128
 719.333333333 677 758 651.833333333 790 619.5 c 128
 822 587.166666667 846.5 548.333333333 863.5 503 c 128
 880.5 457.666666667 889 407.333333333 889 352 c 0
 889 303.333333333 882.166666667 260.5 868.5 223.5 c 128
 854.833333333 186.5 837.166666667 155.5 815.5 130.5 c 128
 793.833333333 105.5 769.833333333 86.6666666667 743.5 74 c 128
 717.166666667 61.3333333333 691.333333333 55 666 55 c 0
 635.333333333 55 609.333333333 62 588 76 c 128
 566.666666667 90 554.333333333 111.333333333 551 140 c 1
 548 140 l 1
 530 118.666666667 509 100.5 485 85.5 c 128
 461 70.5 436.666666667 63 412 63 c 0
 374 63 342.166666667 76.6666666667 316.5 104 c 128
 290.833333333 131.333333333 278 170.666666667 278 222 c 0
 278 251.333333333 283 281.333333333 293 312 c 128
 303 342.666666667 317.333333333 370.5 336 395.5 c 128
 354.666666667 420.5 377.333333333 441 404 457 c 128
 430.666666667 473 460.333333333 481 493 481 c 0
 532.333333333 481 562 462.666666667 582 426 c 1
 584 426 l 1
 597 472 l 1
 657 472 l 1
 613 249 l 2
 602.333333333 203.666666667 602.166666667 170.5 612.5 149.5 c 128
 622.833333333 128.5 643.333333333 118 674 118 c 0
 692 118 709.833333333 123.166666667 727.5 133.5 c 128
 745.166666667 143.833333333 761.333333333 158.833333333 776 178.5 c 128
 790.666666667 198.166666667 802.5 222.333333333 811.5 251 c 128
 820.5 279.666666667 825 312 825 348 c 0
 825 393.333333333 818.333333333 435.166666667 805 473.5 c 128
 791.666666667 511.833333333 772 544.833333333 746 572.5 c 128
 720 600.166666667 687.666666667 621.833333333 649 637.5 c 128
 610.333333333 653.166666667 565.666666667 661 515 661 c 0
 465 661 416.666666667 650.833333333 370 630.5 c 128
 323.333333333 610.166666667 281.666666667 581.166666667 245 543.5 c 128
 208.333333333 505.833333333 179 460.5 157 407.5 c 128
 135 354.5 124 295.333333333 124 230 c 0
 124 175.333333333 132.333333333 126.833333333 149 84.5 c 128
 165.666666667 42.1666666667 188.833333333 6.5 218.5 -22.5 c 128
 248.166666667 -51.5 283.333333333 -73.6666666667 324 -89 c 128
 364.666666667 -104.333333333 408.666666667 -112 456 -112 c 0
 490 -112 522.5 -107.333333333 553.5 -98 c 128
 584.5 -88.6666666667 612.666666667 -76.6666666667 638 -62 c 1
 662 -116 l 1
 629.333333333 -135.333333333 595.5 -149.666666667 560.5 -159 c 128
 525.5 -168.333333333 488.666666667 -173 450 -173 c 0
430 126 m 0
 445.333333333 126 461.5 131.166666667 478.5 141.5 c 128
 495.5 151.833333333 513.666666667 168.666666667 533 192 c 1
 565 370 l 1
 554.333333333 387.333333333 543.5 399.5 532.5 406.5 c 128
 521.5 413.5 508.333333333 417 493 417 c 0
 471 417 451.166666667 411 433.5 399 c 128
 415.833333333 387 401 371.833333333 389 353.5 c 128
 377 335.166666667 367.666666667 314.833333333 361 292.5 c 128
 354.333333333 270.166666667 351 248.333333333 351 227 c 0
 351 191 358.5 165.166666667 373.5 149.5 c 128
 388.5 133.833333333 407.333333333 126 430 126 c 0
EndSplineSet
EndChar

StartChar: A
Encoding: 65 65 32
Width: 607
Flags: HW
LayerCount: 2
Fore
SplineSet
436 224 m 1
 168 224 l 1
 97 0 l 1
 3 0 l 1
 252 733 l 1
 355 733 l 1
 604 0 l 1
 506 0 l 1
 436 224 l 1
413 298 m 1
 378 410 l 2
 364.666666667 452 352 493.166666667 340 533.5 c 128
 328 573.833333333 316 615.333333333 304 658 c 1
 300 658 l 1
 288.666666667 614.666666667 277 573 265 533 c 128
 253 493 240.333333333 452 227 410 c 2
 191 298 l 1
 413 298 l 1
EndSplineSet
EndChar

StartChar: B
Encoding: 66 66 33
Width: 657
Flags: HW
LayerCount: 2
Fore
SplineSet
100 733 m 1
 318 733 l 2
 355.333333333 733 389.5 729.666666667 420.5 723 c 128
 451.5 716.333333333 478 705.833333333 500 691.5 c 128
 522 677.166666667 539.166666667 658.666666667 551.5 636 c 128
 563.833333333 613.333333333 570 586 570 554 c 0
 570 517.333333333 560.666666667 484.5 542 455.5 c 128
 523.333333333 426.5 496.666666667 406.333333333 462 395 c 1
 462 390 l 1
 506 381.333333333 542 362.5 570 333.5 c 128
 598 304.5 612 265 612 215 c 0
 612 179 605.166666667 147.5 591.5 120.5 c 128
 577.833333333 93.5 558.833333333 71.1666666667 534.5 53.5 c 128
 510.166666667 35.8333333333 481 22.5 447 13.5 c 128
 413 4.5 375.333333333 0 334 0 c 2
 100 0 l 1
 100 733 l 1
302 421 m 2
 365.333333333 421 410.666666667 431.833333333 438 453.5 c 128
 465.333333333 475.166666667 479 504.666666667 479 542 c 0
 479 585.333333333 464.5 615.833333333 435.5 633.5 c 128
 406.5 651.166666667 363.333333333 660 306 660 c 2
 193 660 l 1
 193 421 l 1
 302 421 l 2
321 74 m 2
 384.333333333 74 433.5 85.5 468.5 108.5 c 128
 503.5 131.5 521 168 521 218 c 0
 521 264 503.833333333 297.5 469.5 318.5 c 128
 435.166666667 339.5 385.666666667 350 321 350 c 2
 193 350 l 1
 193 74 l 1
 321 74 l 2
EndSplineSet
EndChar

StartChar: C
Encoding: 67 67 34
Width: 638
Flags: HW
LayerCount: 2
Fore
SplineSet
377 -13 m 0
 331.666666667 -13 289.5 -4.33333333333 250.5 13 c 128
 211.5 30.3333333333 177.833333333 55.1666666667 149.5 87.5 c 128
 121.166666667 119.833333333 98.8333333333 159.5 82.5 206.5 c 128
 66.1666666667 253.5 58 306.666666667 58 366 c 256
 58 425.333333333 66.1666666667 478.5 82.5 525.5 c 128
 98.8333333333 572.5 121.5 612.5 150.5 645.5 c 128
 179.5 678.5 213.833333333 703.666666667 253.5 721 c 128
 293.166666667 738.333333333 336.333333333 747 383 747 c 0
 405 747 426 744.5 446 739.5 c 128
 466 734.5 484.5 727.666666667 501.5 719 c 128
 518.5 710.333333333 533.833333333 700.666666667 547.5 690 c 128
 561.166666667 679.333333333 573.333333333 668 584 656 c 1
 534 596 l 1
 514.666666667 616.666666667 492.833333333 633.5 468.5 646.5 c 128
 444.166666667 659.5 416 666 384 666 c 0
 349.333333333 666 317.833333333 659.166666667 289.5 645.5 c 128
 261.166666667 631.833333333 236.833333333 612.166666667 216.5 586.5 c 128
 196.166666667 560.833333333 180.5 529.666666667 169.5 493 c 128
 158.5 456.333333333 153 415 153 369 c 256
 153 323 158.333333333 281.333333333 169 244 c 128
 179.666666667 206.666666667 194.833333333 175 214.5 149 c 128
 234.166666667 123 258.166666667 103 286.5 89 c 128
 314.833333333 75 346.333333333 68 381 68 c 0
 416.333333333 68 447.666666667 75.3333333333 475 90 c 128
 502.333333333 104.666666667 527.666666667 124.666666667 551 150 c 1
 602 92 l 1
 572.666666667 58 539.833333333 32 503.5 14 c 128
 467.166666667 -4 425 -13 377 -13 c 0
EndSplineSet
EndChar

StartChar: D
Encoding: 68 68 35
Width: 687
Flags: HW
LayerCount: 2
Fore
SplineSet
100 733 m 1
 284 733 l 2
 397.333333333 733 483.333333333 701.666666667 542 639 c 128
 600.666666667 576.333333333 630 486.333333333 630 369 c 0
 630 311 622.5 259.166666667 607.5 213.5 c 128
 592.5 167.833333333 570.5 129.166666667 541.5 97.5 c 128
 512.5 65.8333333333 476.833333333 41.6666666667 434.5 25 c 128
 392.166666667 8.33333333333 343.333333333 0 288 0 c 2
 100 0 l 1
 100 733 l 1
276 76 m 2
 362.666666667 76 427.333333333 101.666666667 470 153 c 128
 512.666666667 204.333333333 534 276.333333333 534 369 c 0
 534 462.333333333 512.833333333 533.833333333 470.5 583.5 c 128
 428.166666667 633.166666667 363.333333333 658 276 658 c 2
 193 658 l 1
 193 76 l 1
 276 76 l 2
EndSplineSet
EndChar

StartChar: E
Encoding: 69 69 36
Width: 588
Flags: HW
LayerCount: 2
Fore
SplineSet
100 733 m 1
 523 733 l 1
 523 655 l 1
 193 655 l 1
 193 425 l 1
 471 425 l 1
 471 346 l 1
 193 346 l 1
 193 79 l 1
 534 79 l 1
 534 0 l 1
 100 0 l 1
 100 733 l 1
EndSplineSet
EndChar

StartChar: F
Encoding: 70 70 37
Width: 552
Flags: HW
LayerCount: 2
Fore
SplineSet
100 733 m 1
 523 733 l 1
 523 655 l 1
 193 655 l 1
 193 407 l 1
 473 407 l 1
 473 329 l 1
 193 329 l 1
 193 0 l 1
 100 0 l 1
 100 733 l 1
EndSplineSet
EndChar

StartChar: G
Encoding: 71 71 38
Width: 689
Flags: HW
LayerCount: 2
Fore
SplineSet
388 -13 m 0
 340 -13 295.666666667 -4.33333333333 255 13 c 128
 214.333333333 30.3333333333 179.5 55.1666666667 150.5 87.5 c 128
 121.5 119.833333333 98.8333333333 159.5 82.5 206.5 c 128
 66.1666666667 253.5 58 306.666666667 58 366 c 256
 58 425.333333333 66.3333333333 478.5 83 525.5 c 128
 99.6666666667 572.5 123 612.5 153 645.5 c 128
 183 678.5 218.5 703.666666667 259.5 721 c 128
 300.5 738.333333333 345.333333333 747 394 747 c 0
 419.333333333 747 442.666666667 744.333333333 464 739 c 128
 485.333333333 733.666666667 504.666666667 726.833333333 522 718.5 c 128
 539.333333333 710.166666667 554.833333333 700.5 568.5 689.5 c 128
 582.166666667 678.5 594.333333333 667.333333333 605 656 c 1
 555 596 l 1
 536.333333333 615.333333333 514.666666667 631.833333333 490 645.5 c 128
 465.333333333 659.166666667 434 666 396 666 c 0
 359.333333333 666 326 659.166666667 296 645.5 c 128
 266 631.833333333 240.5 612.166666667 219.5 586.5 c 128
 198.5 560.833333333 182.166666667 529.666666667 170.5 493 c 128
 158.833333333 456.333333333 153 415 153 369 c 256
 153 323 158.333333333 281.333333333 169 244 c 128
 179.666666667 206.666666667 195.333333333 175 216 149 c 128
 236.666666667 123 262.166666667 103 292.5 89 c 128
 322.833333333 75 357.666666667 68 397 68 c 0
 423.666666667 68 448.833333333 71.8333333333 472.5 79.5 c 128
 496.166666667 87.1666666667 515.333333333 97.6666666667 530 111 c 1
 530 303 l 1
 375 303 l 1
 375 380 l 1
 615 380 l 1
 615 72 l 1
 591.666666667 47.3333333333 560.5 27 521.5 11 c 128
 482.5 -5 438 -13 388 -13 c 0
EndSplineSet
EndChar

StartChar: H
Encoding: 72 72 39
Width: 728
Flags: HW
LayerCount: 2
Fore
SplineSet
100 733 m 1
 193 733 l 1
 193 426 l 1
 535 426 l 1
 535 733 l 1
 627 733 l 1
 627 0 l 1
 535 0 l 1
 535 346 l 1
 193 346 l 1
 193 0 l 1
 100 0 l 1
 100 733 l 1
EndSplineSet
EndChar

StartChar: I
Encoding: 73 73 40
Width: 293
Flags: HW
LayerCount: 2
Fore
SplineSet
100 733 m 1
 193 733 l 1
 193 0 l 1
 100 0 l 1
 100 733 l 1
EndSplineSet
EndChar

StartChar: J
Encoding: 74 74 41
Width: 536
Flags: HW
LayerCount: 2
Fore
SplineSet
237 -13 m 0
 190.333333333 -13 150.333333333 -3.16666666667 117 16.5 c 128
 83.6666666667 36.1666666667 56.3333333333 65 35 103 c 1
 101 150 l 1
 117.666666667 120.666666667 136.333333333 99.6666666667 157 87 c 128
 177.666666667 74.3333333333 201.333333333 68 228 68 c 0
 268 68 297.666666667 80 317 104 c 128
 336.333333333 128 346 168 346 224 c 2
 346 733 l 1
 438 733 l 1
 438 215 l 2
 438 183.666666667 434.166666667 154.166666667 426.5 126.5 c 128
 418.833333333 98.8333333333 407 74.6666666667 391 54 c 128
 375 33.3333333333 354.333333333 17 329 5 c 128
 303.666666667 -7 273 -13 237 -13 c 0
EndSplineSet
EndChar

StartChar: K
Encoding: 75 75 42
Width: 646
Flags: HW
LayerCount: 2
Fore
SplineSet
100 733 m 1
 193 733 l 1
 193 365 l 1
 196 365 l 1
 502 733 l 1
 606 733 l 1
 377 454 l 1
 642 0 l 1
 538 0 l 1
 319 382 l 1
 193 232 l 1
 193 0 l 1
 100 0 l 1
 100 733 l 1
EndSplineSet
EndChar

StartChar: L
Encoding: 76 76 43
Width: 542
Flags: HW
LayerCount: 2
Fore
SplineSet
100 733 m 1
 193 733 l 1
 193 79 l 1
 513 79 l 1
 513 0 l 1
 100 0 l 1
 100 733 l 1
EndSplineSet
EndChar

StartChar: M
Encoding: 77 77 44
Width: 812
Flags: HW
LayerCount: 2
Fore
SplineSet
100 733 m 1
 212 733 l 1
 353 341 l 2
 361.666666667 315.666666667 370.166666667 290.166666667 378.5 264.5 c 128
 386.833333333 238.833333333 395.666666667 213.333333333 405 188 c 1
 410 188 l 1
 412 194.666666667 414 201.166666667 416 207.5 c 128
 418 213.833333333 420.333333333 220 423 226 c 2
 447 303 l 2
 451.666666667 314.333333333 456 327 460 341 c 2
 600 733 l 1
 712 733 l 1
 712 0 l 1
 625 0 l 1
 625 406 l 2
 625 422 625.333333333 439.166666667 626 457.5 c 128
 626.666666667 475.833333333 627.666666667 494.5 629 513.5 c 128
 630.333333333 532.5 631.666666667 551.333333333 633 570 c 128
 634.333333333 588.666666667 635.666666667 606 637 622 c 1
 633 622 l 1
 575 455 l 1
 436 74 l 1
 374 74 l 1
 235 455 l 1
 177 622 l 1
 173 622 l 1
 174.333333333 606 175.5 588.666666667 176.5 570 c 128
 177.5 551.333333333 178.666666667 532.5 180 513.5 c 128
 181.333333333 494.5 182.333333333 475.833333333 183 457.5 c 128
 183.666666667 439.166666667 184 422 184 406 c 2
 184 0 l 1
 100 0 l 1
 100 733 l 1
EndSplineSet
EndChar

StartChar: N
Encoding: 78 78 45
Width: 722
Flags: HW
LayerCount: 2
Fore
SplineSet
100 733 m 1
 196 733 l 1
 463 271 l 1
 541 120 l 1
 546 120 l 1
 543.333333333 157.333333333 540.666666667 195.833333333 538 235.5 c 128
 535.333333333 275.166666667 534 314 534 352 c 2
 534 733 l 1
 622 733 l 1
 622 0 l 1
 527 0 l 1
 260 463 l 1
 181 614 l 1
 177 614 l 1
 179 576.666666667 181.333333333 538.833333333 184 500.5 c 128
 186.666666667 462.166666667 188 423.666666667 188 385 c 2
 188 0 l 1
 100 0 l 1
 100 733 l 1
EndSplineSet
EndChar

StartChar: O
Encoding: 79 79 46
Width: 742
Flags: HW
LayerCount: 2
Fore
SplineSet
371 -13 m 256
 325 -13 282.833333333 -4.16666666667 244.5 13.5 c 128
 206.166666667 31.1666666667 173.166666667 56.5 145.5 89.5 c 128
 117.833333333 122.5 96.3333333333 162.666666667 81 210 c 128
 65.6666666667 257.333333333 58 310.333333333 58 369 c 256
 58 427.666666667 65.6666666667 480.333333333 81 527 c 128
 96.3333333333 573.666666667 117.833333333 613.333333333 145.5 646 c 128
 173.166666667 678.666666667 206.166666667 703.666666667 244.5 721 c 128
 282.833333333 738.333333333 325 747 371 747 c 256
 417 747 459.166666667 738.333333333 497.5 721 c 128
 535.833333333 703.666666667 568.833333333 678.666666667 596.5 646 c 128
 624.166666667 613.333333333 645.666666667 573.666666667 661 527 c 128
 676.333333333 480.333333333 684 427.666666667 684 369 c 256
 684 310.333333333 676.333333333 257.333333333 661 210 c 128
 645.666666667 162.666666667 624.166666667 122.5 596.5 89.5 c 128
 568.833333333 56.5 535.833333333 31.1666666667 497.5 13.5 c 128
 459.166666667 -4.16666666667 417 -13 371 -13 c 256
371 68 m 256
 403.666666667 68 433.5 75.1666666667 460.5 89.5 c 128
 487.5 103.833333333 510.5 124 529.5 150 c 128
 548.5 176 563.166666667 207.5 573.5 244.5 c 128
 583.833333333 281.5 589 323 589 369 c 256
 589 415 583.833333333 456.333333333 573.5 493 c 128
 563.166666667 529.666666667 548.5 560.833333333 529.5 586.5 c 128
 510.5 612.166666667 487.5 631.833333333 460.5 645.5 c 128
 433.5 659.166666667 403.666666667 666 371 666 c 256
 338.333333333 666 308.5 659.166666667 281.5 645.5 c 128
 254.5 631.833333333 231.5 612.166666667 212.5 586.5 c 128
 193.5 560.833333333 178.833333333 529.666666667 168.5 493 c 128
 158.166666667 456.333333333 153 415 153 369 c 256
 153 323 158.166666667 281.5 168.5 244.5 c 128
 178.833333333 207.5 193.5 176 212.5 150 c 128
 231.5 124 254.5 103.833333333 281.5 89.5 c 128
 308.5 75.1666666667 338.333333333 68 371 68 c 256
EndSplineSet
EndChar

StartChar: P
Encoding: 80 80 47
Width: 632
Flags: HW
LayerCount: 2
Fore
SplineSet
100 733 m 1
 309 733 l 2
 350.333333333 733 387.833333333 729.333333333 421.5 722 c 128
 455.166666667 714.666666667 484 702.5 508 685.5 c 128
 532 668.5 550.666666667 646.333333333 564 619 c 128
 577.333333333 591.666666667 584 558 584 518 c 0
 584 479.333333333 577.5 445.666666667 564.5 417 c 128
 551.5 388.333333333 533 364.666666667 509 346 c 128
 485 327.333333333 456.5 313.5 423.5 304.5 c 128
 390.5 295.5 354 291 314 291 c 2
 193 291 l 1
 193 0 l 1
 100 0 l 1
 100 733 l 1
302 366 m 2
 366.666666667 366 414.5 378.166666667 445.5 402.5 c 128
 476.5 426.833333333 492 465.333333333 492 518 c 0
 492 544.666666667 488 566.833333333 480 584.5 c 128
 472 602.166666667 459.833333333 616.5 443.5 627.5 c 128
 427.166666667 638.5 406.833333333 646.333333333 382.5 651 c 128
 358.166666667 655.666666667 330 658 298 658 c 2
 193 658 l 1
 193 366 l 1
 302 366 l 2
EndSplineSet
EndChar

StartChar: Q
Encoding: 81 81 48
Width: 742
Flags: HW
LayerCount: 2
Fore
SplineSet
700 -168 m 1
 688.666666667 -172 673.833333333 -175.666666667 655.5 -179 c 128
 637.166666667 -182.333333333 617 -184 595 -184 c 0
 561 -184 529.833333333 -179.666666667 501.5 -171 c 128
 473.166666667 -162.333333333 447.666666667 -150.333333333 425 -135 c 128
 402.333333333 -119.666666667 382.666666667 -101.333333333 366 -80 c 128
 349.333333333 -58.6666666667 336 -35.3333333333 326 -10 c 1
 286 -4.66666666667 249.5 8 216.5 28 c 128
 183.5 48 155.333333333 74.3333333333 132 107 c 128
 108.666666667 139.666666667 90.5 178 77.5 222 c 128
 64.5 266 58 315 58 369 c 0
 58 427.666666667 65.6666666667 480.333333333 81 527 c 128
 96.3333333333 573.666666667 117.833333333 613.333333333 145.5 646 c 128
 173.166666667 678.666666667 206.166666667 703.666666667 244.5 721 c 128
 282.833333333 738.333333333 325 747 371 747 c 256
 417 747 459.166666667 738.333333333 497.5 721 c 128
 535.833333333 703.666666667 568.833333333 678.666666667 596.5 646 c 128
 624.166666667 613.333333333 645.666666667 573.666666667 661 527 c 128
 676.333333333 480.333333333 684 427.666666667 684 369 c 0
 684 316.333333333 677.833333333 268.333333333 665.5 225 c 128
 653.166666667 181.666666667 635.666666667 143.666666667 613 111 c 128
 590.333333333 78.3333333333 563 51.8333333333 531 31.5 c 128
 499 11.1666666667 463.666666667 -2.33333333333 425 -9 c 1
 441.666666667 -41.6666666667 465.833333333 -66.1666666667 497.5 -82.5 c 128
 529.166666667 -98.8333333333 565 -107 605 -107 c 0
 621.666666667 -107 636.333333333 -106 649 -104 c 128
 661.666666667 -102 672.666666667 -99.3333333333 682 -96 c 1
 700 -168 l 1
153 369 m 0
 153 322.333333333 158.166666667 280.166666667 168.5 242.5 c 128
 178.833333333 204.833333333 193.5 172.666666667 212.5 146 c 128
 231.5 119.333333333 254.5 98.8333333333 281.5 84.5 c 128
 308.5 70.1666666667 338.333333333 63 371 63 c 256
 403.666666667 63 433.5 70.1666666667 460.5 84.5 c 128
 487.5 98.8333333333 510.5 119.333333333 529.5 146 c 128
 548.5 172.666666667 563.166666667 204.833333333 573.5 242.5 c 128
 583.833333333 280.166666667 589 322.333333333 589 369 c 0
 589 415 583.833333333 456.333333333 573.5 493 c 128
 563.166666667 529.666666667 548.5 560.833333333 529.5 586.5 c 128
 510.5 612.166666667 487.5 631.833333333 460.5 645.5 c 128
 433.5 659.166666667 403.666666667 666 371 666 c 256
 338.333333333 666 308.5 659.166666667 281.5 645.5 c 128
 254.5 631.833333333 231.5 612.166666667 212.5 586.5 c 128
 193.5 560.833333333 178.833333333 529.666666667 168.5 493 c 128
 158.166666667 456.333333333 153 415 153 369 c 0
EndSplineSet
EndChar

StartChar: R
Encoding: 82 82 49
Width: 635
Flags: HW
LayerCount: 2
Fore
SplineSet
503 0 m 1
 325 311 l 1
 193 311 l 1
 193 0 l 1
 100 0 l 1
 100 733 l 1
 330 733 l 2
 367.333333333 733 401.666666667 729.5 433 722.5 c 128
 464.333333333 715.5 491.333333333 703.833333333 514 687.5 c 128
 536.666666667 671.166666667 554.333333333 649.833333333 567 623.5 c 128
 579.666666667 597.166666667 586 565 586 527 c 0
 586 469.666666667 570.833333333 424 540.5 390 c 128
 510.166666667 356 470 333 420 321 c 1
 608 0 l 1
 503 0 l 1
193 386 m 1
 316 386 l 2
 374 386 418.166666667 397.5 448.5 420.5 c 128
 478.833333333 443.5 494 479 494 527 c 0
 494 575.666666667 478.833333333 609.666666667 448.5 629 c 128
 418.166666667 648.333333333 374 658 316 658 c 2
 193 658 l 1
 193 386 l 1
EndSplineSet
EndChar

StartChar: S
Encoding: 83 83 50
Width: 597
Flags: HW
LayerCount: 2
Fore
SplineSet
304 -13 m 0
 252 -13 204.166666667 -3.33333333333 160.5 16 c 128
 116.833333333 35.3333333333 79 62 47 96 c 1
 102 159 l 1
 128.666666667 131 159.666666667 108.833333333 195 92.5 c 128
 230.333333333 76.1666666667 267 68 305 68 c 0
 353 68 390.666666667 79 418 101 c 128
 445.333333333 123 459 152 459 188 c 0
 459 206.666666667 455.833333333 222.5 449.5 235.5 c 128
 443.166666667 248.5 434.5 259.833333333 423.5 269.5 c 128
 412.5 279.166666667 399.666666667 287.666666667 385 295 c 128
 370.333333333 302.333333333 354.333333333 310 337 318 c 2
 231 364 l 2
 214.333333333 371.333333333 197.166666667 380.166666667 179.5 390.5 c 128
 161.833333333 400.833333333 145.666666667 413.5 131 428.5 c 128
 116.333333333 443.5 104.5 461.166666667 95.5 481.5 c 128
 86.5 501.833333333 82 525.333333333 82 552 c 0
 82 580 87.8333333333 606 99.5 630 c 128
 111.166666667 654 127.166666667 674.666666667 147.5 692 c 128
 167.833333333 709.333333333 192.166666667 722.833333333 220.5 732.5 c 128
 248.833333333 742.166666667 279.666666667 747 313 747 c 0
 357 747 397.5 738.666666667 434.5 722 c 128
 471.5 705.333333333 503 683.333333333 529 656 c 1
 480 597 l 1
 457.333333333 618.333333333 432.333333333 635.166666667 405 647.5 c 128
 377.666666667 659.833333333 347 666 313 666 c 0
 271 666 237.666666667 656.333333333 213 637 c 128
 188.333333333 617.666666667 176 591.333333333 176 558 c 0
 176 540 179.666666667 524.666666667 187 512 c 128
 194.333333333 499.333333333 203.666666667 488.333333333 215 479 c 128
 226.333333333 469.666666667 239.333333333 461.666666667 254 455 c 128
 268.666666667 448.333333333 283 442 297 436 c 2
 402 391 l 2
 423.333333333 381.666666667 443.166666667 371.333333333 461.5 360 c 128
 479.833333333 348.666666667 495.833333333 335.333333333 509.5 320 c 128
 523.166666667 304.666666667 533.833333333 286.833333333 541.5 266.5 c 128
 549.166666667 246.166666667 553 222.333333333 553 195 c 0
 553 166.333333333 547.166666667 139.333333333 535.5 114 c 128
 523.833333333 88.6666666667 507.333333333 66.5 486 47.5 c 128
 464.666666667 28.5 438.5 13.6666666667 407.5 3 c 128
 376.5 -7.66666666667 342 -13 304 -13 c 0
EndSplineSet
EndChar

StartChar: T
Encoding: 84 84 51
Width: 599
Flags: HW
LayerCount: 2
Fore
SplineSet
253 655 m 1
 31 655 l 1
 31 733 l 1
 568 733 l 1
 568 655 l 1
 346 655 l 1
 346 0 l 1
 253 0 l 1
 253 655 l 1
EndSplineSet
EndChar

StartChar: U
Encoding: 85 85 52
Width: 721
Flags: HW
LayerCount: 2
Fore
SplineSet
360 -13 m 256
 322.666666667 -13 288 -7.66666666667 256 3 c 128
 224 13.6666666667 196.166666667 31.5 172.5 56.5 c 128
 148.833333333 81.5 130.333333333 114.166666667 117 154.5 c 128
 103.666666667 194.833333333 97 244.333333333 97 303 c 2
 97 733 l 1
 190 733 l 1
 190 300 l 2
 190 256 194.333333333 219.166666667 203 189.5 c 128
 211.666666667 159.833333333 223.666666667 136 239 118 c 128
 254.333333333 100 272.333333333 87.1666666667 293 79.5 c 128
 313.666666667 71.8333333333 336 68 360 68 c 0
 384.666666667 68 407.666666667 71.8333333333 429 79.5 c 128
 450.333333333 87.1666666667 468.833333333 100 484.5 118 c 128
 500.166666667 136 512.5 159.833333333 521.5 189.5 c 128
 530.5 219.166666667 535 256 535 300 c 2
 535 733 l 1
 624 733 l 1
 624 303 l 2
 624 244.333333333 617.333333333 194.833333333 604 154.5 c 128
 590.666666667 114.166666667 572.166666667 81.5 548.5 56.5 c 128
 524.833333333 31.5 496.833333333 13.6666666667 464.5 3 c 128
 432.166666667 -7.66666666667 397.333333333 -13 360 -13 c 256
EndSplineSet
EndChar

StartChar: V
Encoding: 86 86 53
Width: 575
Flags: HW
LayerCount: 2
Fore
SplineSet
1 733 m 1
 98 733 l 1
 217 336 l 2
 223.666666667 314.666666667 229.833333333 294 235.5 274 c 128
 241.166666667 254 246.666666667 234.333333333 252 215 c 128
 257.333333333 195.666666667 263 176 269 156 c 128
 275 136 281.333333333 115.333333333 288 94 c 1
 292 94 l 1
 298.666666667 115.333333333 305 136 311 156 c 128
 317 176 322.666666667 195.666666667 328 215 c 128
 333.333333333 234.333333333 338.833333333 254 344.5 274 c 128
 350.166666667 294 356.333333333 314.666666667 363 336 c 2
 481 733 l 1
 575 733 l 1
 342 0 l 1
 235 0 l 1
 1 733 l 1
EndSplineSet
EndChar

StartChar: W
Encoding: 87 87 54
Width: 878
Flags: HW
LayerCount: 2
Fore
SplineSet
25 733 m 1
 121 733 l 1
 198 334 l 2
 200 324 201.833333333 314.166666667 203.5 304.5 c 128
 205.166666667 294.833333333 207 285 209 275 c 2
 230 156 l 2
 232 146.666666667 234 137 236 127 c 128
 238 117 239.666666667 107 241 97 c 1
 245 97 l 1
 253.666666667 137 262.333333333 176.5 271 215.5 c 128
 279.666666667 254.5 288.666666667 294 298 334 c 2
 399 733 l 1
 483 733 l 1
 586 334 l 2
 595.333333333 294.666666667 604.166666667 255.333333333 612.5 216 c 128
 620.833333333 176.666666667 629.333333333 137 638 97 c 1
 643 97 l 1
 657 177 671 256 685 334 c 2
 762 733 l 1
 851 733 l 1
 699 0 l 1
 588 0 l 1
 477 442 l 2
 470.333333333 471.333333333 464.166666667 499.5 458.5 526.5 c 128
 452.833333333 553.5 447 581 441 609 c 1
 437 609 l 1
 431 581 424.833333333 553.5 418.5 526.5 c 128
 412.166666667 499.5 406 471.333333333 400 442 c 2
 291 0 l 1
 181 0 l 1
 25 733 l 1
EndSplineSet
EndChar

StartChar: X
Encoding: 88 88 55
Width: 573
Flags: HW
LayerCount: 2
Fore
SplineSet
231 379 m 1
 31 733 l 1
 133 733 l 1
 233 546 l 2
 242.333333333 528.666666667 251.333333333 511.833333333 260 495.5 c 128
 268.666666667 479.166666667 279 460.333333333 291 439 c 1
 295 439 l 1
 305 460.333333333 313.833333333 479.166666667 321.5 495.5 c 128
 329.166666667 511.833333333 337.666666667 528.666666667 347 546 c 2
 445 733 l 1
 542 733 l 1
 342 374 l 1
 556 0 l 1
 454 0 l 1
 346 198 l 2
 336.666666667 216 326.833333333 234.666666667 316.5 254 c 128
 306.166666667 273.333333333 295 294 283 316 c 1
 279 316 l 1
 258.333333333 272.666666667 238.666666667 233.333333333 220 198 c 2
 114 0 l 1
 17 0 l 1
 231 379 l 1
EndSplineSet
EndChar

StartChar: Y
Encoding: 89 89 56
Width: 531
Flags: HW
LayerCount: 2
Fore
SplineSet
219 285 m 1
 -1 733 l 1
 98 733 l 1
 192 526 l 2
 204 498.666666667 215.666666667 472.166666667 227 446.5 c 128
 238.333333333 420.833333333 250.666666667 394 264 366 c 1
 268 366 l 1
 281.333333333 394 294 420.833333333 306 446.5 c 128
 318 472.166666667 329.666666667 498.666666667 341 526 c 2
 436 733 l 1
 532 733 l 1
 312 285 l 1
 312 0 l 1
 219 0 l 1
 219 285 l 1
EndSplineSet
EndChar

StartChar: Z
Encoding: 90 90 57
Width: 603
Flags: HW
LayerCount: 2
Fore
SplineSet
50 55 m 1
 437 655 l 1
 85 655 l 1
 85 733 l 1
 551 733 l 1
 551 679 l 1
 164 79 l 1
 555 79 l 1
 555 0 l 1
 50 0 l 1
 50 55 l 1
EndSplineSet
EndChar

StartChar: bracketleft
Encoding: 91 91 58
Width: 338
Flags: HW
LayerCount: 2
Fore
SplineSet
105 791 m 1
 304 791 l 1
 304 740 l 1
 174 740 l 1
 174 -118 l 1
 304 -118 l 1
 304 -170 l 1
 105 -170 l 1
 105 791 l 1
EndSplineSet
EndChar

StartChar: backslash
Encoding: 92 92 59
Width: 392
Flags: HW
LayerCount: 2
Fore
SplineSet
15 793 m 1
 81 793 l 1
 380 -179 l 1
 314 -179 l 1
 15 793 l 1
EndSplineSet
EndChar

StartChar: bracketright
Encoding: 93 93 60
Width: 338
Flags: HW
LayerCount: 2
Fore
SplineSet
34 -118 m 1
 164 -118 l 1
 164 740 l 1
 34 740 l 1
 34 791 l 1
 233 791 l 1
 233 -170 l 1
 34 -170 l 1
 34 -118 l 1
EndSplineSet
EndChar

StartChar: asciicircum
Encoding: 94 94 61
Width: 555
Flags: HW
LayerCount: 2
Fore
SplineSet
237 749 m 1
 318 749 l 1
 488 317 l 1
 408 317 l 1
 334 515 l 1
 280 664 l 1
 275 664 l 1
 147 317 l 1
 67 317 l 1
 237 749 l 1
EndSplineSet
EndChar

StartChar: underscore
Encoding: 95 95 62
Width: 559
Flags: HW
LayerCount: 2
Fore
SplineSet
13 -79 m 1
 545 -79 l 1
 545 -140 l 1
 13 -140 l 1
 13 -79 l 1
EndSplineSet
EndChar

StartChar: grave
Encoding: 96 96 63
Width: 606
Flags: HW
LayerCount: 2
Fore
SplineSet
144 811 m 1
 208 872 l 1
 366 686 l 1
 319 641 l 1
 144 811 l 1
EndSplineSet
EndChar

StartChar: a
Encoding: 97 97 64
Width: 564
Flags: HW
LayerCount: 2
Fore
SplineSet
217 -13 m 0
 194.333333333 -13 173.333333333 -9.5 154 -2.5 c 128
 134.666666667 4.5 117.833333333 14.5 103.5 27.5 c 128
 89.1666666667 40.5 78 56.5 70 75.5 c 128
 62 94.5 58 116.333333333 58 141 c 0
 58 170.333333333 64.5 196.166666667 77.5 218.5 c 128
 90.5 240.833333333 110.666666667 260.333333333 138 277 c 128
 165.333333333 293.666666667 200 307.333333333 242 318 c 128
 284 328.666666667 334 337.333333333 392 344 c 1
 392 361.333333333 390.333333333 378.333333333 387 395 c 128
 383.666666667 411.666666667 377.833333333 426.333333333 369.5 439 c 128
 361.166666667 451.666666667 349.666666667 461.833333333 335 469.5 c 128
 320.333333333 477.166666667 302 481 280 481 c 0
 248 481 218.166666667 475 190.5 463 c 128
 162.833333333 451 138.333333333 437.666666667 117 423 c 1
 81 486 l 1
 93.6666666667 494 107.833333333 502.166666667 123.5 510.5 c 128
 139.166666667 518.833333333 156 526.5 174 533.5 c 128
 192 540.5 211.166666667 546.166666667 231.5 550.5 c 128
 251.833333333 554.833333333 273 557 295 557 c 0
 328.333333333 557 356.833333333 551.666666667 380.5 541 c 128
 404.166666667 530.333333333 423.5 515.333333333 438.5 496 c 128
 453.5 476.666666667 464.666666667 453.166666667 472 425.5 c 128
 479.333333333 397.833333333 483 367.333333333 483 334 c 2
 483 0 l 1
 408 0 l 1
 400 65 l 1
 397 65 l 1
 371 43.6666666667 343 25.3333333333 313 10 c 128
 283 -5.33333333333 251 -13 217 -13 c 0
243 60 m 0
 269.666666667 60 294.5 66.1666666667 317.5 78.5 c 128
 340.5 90.8333333333 365.333333333 108.666666667 392 132 c 1
 392 284 l 1
 346 278.666666667 307.5 271.833333333 276.5 263.5 c 128
 245.5 255.166666667 220.333333333 245.166666667 201 233.5 c 128
 181.666666667 221.833333333 167.833333333 208.833333333 159.5 194.5 c 128
 151.166666667 180.166666667 147 164.333333333 147 147 c 0
 147 115.666666667 156.166666667 93.3333333333 174.5 80 c 128
 192.833333333 66.6666666667 215.666666667 60 243 60 c 0
EndSplineSet
EndChar

StartChar: b
Encoding: 98 98 65
Width: 618
Flags: HW
LayerCount: 2
Fore
SplineSet
331 -13 m 0
 305.666666667 -13 279.5 -7 252.5 5 c 128
 225.5 17 200 34 176 56 c 1
 173 56 l 1
 165 0 l 1
 92 0 l 1
 92 796 l 1
 183 796 l 1
 183 578 l 1
 180 480 l 1
 204.666666667 501.333333333 231.666666667 519.5 261 534.5 c 128
 290.333333333 549.5 320 557 350 557 c 0
 385.333333333 557 416.5 550.333333333 443.5 537 c 128
 470.5 523.666666667 493.166666667 505 511.5 481 c 128
 529.833333333 457 543.666666667 428 553 394 c 128
 562.333333333 360 567 322.333333333 567 281 c 0
 567 234.333333333 560.5 192.666666667 547.5 156 c 128
 534.5 119.333333333 517.166666667 88.5 495.5 63.5 c 128
 473.833333333 38.5 448.833333333 19.5 420.5 6.5 c 128
 392.166666667 -6.5 362.333333333 -13 331 -13 c 0
316 63 m 0
 338.666666667 63 359.5 68 378.5 78 c 128
 397.5 88 414 102.166666667 428 120.5 c 128
 442 138.833333333 452.833333333 161.333333333 460.5 188 c 128
 468.166666667 214.666666667 472 245 472 279 c 0
 472 309 469.333333333 336.333333333 464 361 c 128
 458.666666667 385.666666667 450.333333333 406.833333333 439 424.5 c 128
 427.666666667 442.166666667 413 455.833333333 395 465.5 c 128
 377 475.166666667 355 480 329 480 c 0
 305.666666667 480 282 473.666666667 258 461 c 128
 234 448.333333333 209 429.666666667 183 405 c 1
 183 120 l 1
 207 98.6666666667 230.666666667 83.8333333333 254 75.5 c 128
 277.333333333 67.1666666667 298 63 316 63 c 0
EndSplineSet
EndChar

StartChar: c
Encoding: 99 99 66
Width: 509
Flags: HW
LayerCount: 2
Fore
SplineSet
306 -13 m 0
 270 -13 236.5 -6.66666666667 205.5 6 c 128
 174.5 18.6666666667 147.5 37.1666666667 124.5 61.5 c 128
 101.5 85.8333333333 83.5 115.666666667 70.5 151 c 128
 57.5 186.333333333 51 226.333333333 51 271 c 0
 51 316.333333333 58.1666666667 356.666666667 72.5 392 c 128
 86.8333333333 427.333333333 106 457.333333333 130 482 c 128
 154 506.666666667 181.833333333 525.333333333 213.5 538 c 128
 245.166666667 550.666666667 278.333333333 557 313 557 c 0
 349 557 379.666666667 550.666666667 405 538 c 128
 430.333333333 525.333333333 452.666666667 510.333333333 472 493 c 1
 425 432 l 1
 409 446.666666667 392.333333333 458.5 375 467.5 c 128
 357.666666667 476.5 338 481 316 481 c 0
 291.333333333 481 268.666666667 476 248 466 c 128
 227.333333333 456 209.5 441.666666667 194.5 423 c 128
 179.5 404.333333333 167.666666667 382.166666667 159 356.5 c 128
 150.333333333 330.833333333 146 302.333333333 146 271 c 256
 146 239.666666667 150 211.166666667 158 185.5 c 128
 166 159.833333333 177.5 138 192.5 120 c 128
 207.5 102 225.333333333 88 246 78 c 128
 266.666666667 68 289.333333333 63 314 63 c 0
 339.333333333 63 362.666666667 68.1666666667 384 78.5 c 128
 405.333333333 88.8333333333 424.666666667 101.666666667 442 117 c 1
 481 56 l 1
 457 34 430 17 400 5 c 128
 370 -7 338.666666667 -13 306 -13 c 0
EndSplineSet
EndChar

StartChar: d
Encoding: 100 100 67
Width: 620
Flags: HW
LayerCount: 2
Fore
SplineSet
277 -13 m 0
 243 -13 212.166666667 -6.66666666667 184.5 6 c 128
 156.833333333 18.6666666667 133.333333333 37 114 61 c 128
 94.6666666667 85 79.6666666667 114.666666667 69 150 c 128
 58.3333333333 185.333333333 53 225.666666667 53 271 c 0
 53 315 59.5 354.666666667 72.5 390 c 128
 85.5 425.333333333 102.666666667 455.333333333 124 480 c 128
 145.333333333 504.666666667 170.333333333 523.666666667 199 537 c 128
 227.666666667 550.333333333 257.333333333 557 288 557 c 0
 320 557 347.5 551.333333333 370.5 540 c 128
 393.5 528.666666667 417 513 441 493 c 1
 436 587 l 1
 436 796 l 1
 527 796 l 1
 527 0 l 1
 453 0 l 1
 444 64 l 1
 442 64 l 1
 420.666666667 42.6666666667 396 24.5 368 9.5 c 128
 340 -5.5 309.666666667 -13 277 -13 c 0
297 63 m 0
 322.333333333 63 346.166666667 69.1666666667 368.5 81.5 c 128
 390.833333333 93.8333333333 413.333333333 112.666666667 436 138 c 1
 436 423 l 1
 412.666666667 443.666666667 390.5 458.333333333 369.5 467 c 128
 348.5 475.666666667 326.666666667 480 304 480 c 0
 282 480 261.5 475 242.5 465 c 128
 223.5 455 206.833333333 440.833333333 192.5 422.5 c 128
 178.166666667 404.166666667 167 382.333333333 159 357 c 128
 151 331.666666667 147 303.333333333 147 272 c 0
 147 206 160 154.666666667 186 118 c 128
 212 81.3333333333 249 63 297 63 c 0
EndSplineSet
EndChar

StartChar: e
Encoding: 101 101 68
Width: 554
Flags: HW
LayerCount: 2
Fore
SplineSet
311 -13 m 0
 275 -13 241.166666667 -6.66666666667 209.5 6 c 128
 177.833333333 18.6666666667 150.333333333 37.1666666667 127 61.5 c 128
 103.666666667 85.8333333333 85.1666666667 115.666666667 71.5 151 c 128
 57.8333333333 186.333333333 51 226.333333333 51 271 c 0
 51 315 57.8333333333 354.666666667 71.5 390 c 128
 85.1666666667 425.333333333 103.333333333 455.333333333 126 480 c 128
 148.666666667 504.666666667 174.833333333 523.666666667 204.5 537 c 128
 234.166666667 550.333333333 264.666666667 557 296 557 c 0
 330.666666667 557 361.333333333 551 388 539 c 128
 414.666666667 527 437.166666667 509.833333333 455.5 487.5 c 128
 473.833333333 465.166666667 487.833333333 438.333333333 497.5 407 c 128
 507.166666667 375.666666667 512 340.666666667 512 302 c 0
 512 292 511.666666667 282.5 511 273.5 c 128
 510.333333333 264.5 509.333333333 256.666666667 508 250 c 1
 142 250 l 1
 145.333333333 191.333333333 163.166666667 145 195.5 111 c 128
 227.833333333 77 270 60 322 60 c 0
 348.666666667 60 373 63.8333333333 395 71.5 c 128
 417 79.1666666667 438 89.6666666667 458 103 c 1
 491 43 l 1
 467 27.6666666667 440.333333333 14.5 411 3.5 c 128
 381.666666667 -7.5 348.333333333 -13 311 -13 c 0
432 315 m 1
 432 370.333333333 420.166666667 412.333333333 396.5 441 c 128
 372.833333333 469.666666667 339.666666667 484 297 484 c 0
 277.666666667 484 259.166666667 480.166666667 241.5 472.5 c 128
 223.833333333 464.833333333 208 453.833333333 194 439.5 c 128
 180 425.166666667 168.333333333 407.5 159 386.5 c 128
 149.666666667 365.5 143.666666667 341.666666667 141 315 c 1
 432 315 l 1
EndSplineSet
EndChar

StartChar: f
Encoding: 102 102 69
Width: 325
Flags: HW
LayerCount: 2
Fore
SplineSet
336 722 m 1
 315.333333333 731.333333333 295 736 275 736 c 0
 223.666666667 736 198 700.333333333 198 629 c 2
 198 543 l 1
 313 543 l 1
 313 469 l 1
 198 469 l 1
 198 0 l 1
 107 0 l 1
 107 469 l 1
 33 469 l 1
 33 538 l 1
 107 543 l 1
 107 630 l 2
 107 685.333333333 119.833333333 729 145.5 761 c 128
 171.166666667 793 211 809 265 809 c 0
 281.666666667 809 297.666666667 807.333333333 313 804 c 128
 328.333333333 800.666666667 342.666666667 796.333333333 356 791 c 1
 336 722 l 1
EndSplineSet
EndChar

StartChar: g
Encoding: 103 103 70
Width: 563
Flags: HW
LayerCount: 2
Fore
SplineSet
275 -250 m 0
 241.666666667 -250 211.166666667 -246.833333333 183.5 -240.5 c 128
 155.833333333 -234.166666667 132.166666667 -224.833333333 112.5 -212.5 c 128
 92.8333333333 -200.166666667 77.5 -184.833333333 66.5 -166.5 c 128
 55.5 -148.166666667 50 -127.333333333 50 -104 c 256
 50 -80.6666666667 57.1666666667 -58.5 71.5 -37.5 c 128
 85.8333333333 -16.5 105.666666667 2.33333333333 131 19 c 1
 131 23 l 1
 116.333333333 31.6666666667 104.333333333 43.3333333333 95 58 c 128
 85.6666666667 72.6666666667 81 90.6666666667 81 112 c 0
 81 134.666666667 87.6666666667 154.666666667 101 172 c 128
 114.333333333 189.333333333 128 203 142 213 c 1
 142 217 l 1
 124 231.666666667 107.666666667 251.5 93 276.5 c 128
 78.3333333333 301.5 71 330.333333333 71 363 c 0
 71 393 76.5 419.833333333 87.5 443.5 c 128
 98.5 467.166666667 113.333333333 487.5 132 504.5 c 128
 150.666666667 521.5 172.333333333 534.5 197 543.5 c 128
 221.666666667 552.5 247.666666667 557 275 557 c 0
 290.333333333 557 304.5 555.5 317.5 552.5 c 128
 330.5 549.5 341.666666667 546.333333333 351 543 c 1
 540 543 l 1
 540 473 l 1
 429 473 l 1
 442.333333333 460.333333333 453 444.333333333 461 425 c 128
 469 405.666666667 473 384.333333333 473 361 c 0
 473 332.333333333 467.833333333 306.333333333 457.5 283 c 128
 447.166666667 259.666666667 433 239.666666667 415 223 c 128
 397 206.333333333 376 193.666666667 352 185 c 128
 328 176.333333333 302.333333333 172 275 172 c 0
 246.333333333 172 219.333333333 178.333333333 194 191 c 1
 184 182.333333333 175.666666667 173.166666667 169 163.5 c 128
 162.333333333 153.833333333 159 141.333333333 159 126 c 0
 159 108.666666667 165.666666667 94.5 179 83.5 c 128
 192.333333333 72.5 217.333333333 67 254 67 c 2
 360 67 l 2
 423.333333333 67 470.666666667 56.6666666667 502 36 c 128
 533.333333333 15.3333333333 549 -17.3333333333 549 -62 c 0
 549 -87.3333333333 542.666666667 -111.333333333 530 -134 c 128
 517.333333333 -156.666666667 499 -176.666666667 475 -194 c 128
 451 -211.333333333 422.166666667 -225 388.5 -235 c 128
 354.833333333 -245 317 -250 275 -250 c 0
275 234 m 0
 290.333333333 234 305 237 319 243 c 128
 333 249 345.333333333 257.666666667 356 269 c 128
 366.666666667 280.333333333 375 293.833333333 381 309.5 c 128
 387 325.166666667 390 343 390 363 c 0
 390 403 378.833333333 434.166666667 356.5 456.5 c 128
 334.166666667 478.833333333 307 490 275 490 c 256
 243 490 215.666666667 478.833333333 193 456.5 c 128
 170.333333333 434.166666667 159 403 159 363 c 0
 159 343 162.166666667 325.166666667 168.5 309.5 c 128
 174.833333333 293.833333333 183.166666667 280.333333333 193.5 269 c 128
 203.833333333 257.666666667 216 249 230 243 c 128
 244 237 259 234 275 234 c 0
288 -188 m 0
 314 -188 337.666666667 -184.833333333 359 -178.5 c 128
 380.333333333 -172.166666667 398.5 -163.833333333 413.5 -153.5 c 128
 428.5 -143.166666667 440.166666667 -131.166666667 448.5 -117.5 c 128
 456.833333333 -103.833333333 461 -90 461 -76 c 0
 461 -50.6666666667 451.5 -33.1666666667 432.5 -23.5 c 128
 413.5 -13.8333333333 386 -9 350 -9 c 2
 256 -9 l 2
 246 -9 234.833333333 -8.33333333333 222.5 -7 c 128
 210.166666667 -5.66666666667 198 -3.33333333333 186 0 c 1
 166.666666667 -14 152.5 -28.8333333333 143.5 -44.5 c 128
 134.5 -60.1666666667 130 -76 130 -92 c 0
 130 -121.333333333 143.833333333 -144.666666667 171.5 -162 c 128
 199.166666667 -179.333333333 238 -188 288 -188 c 0
EndSplineSet
EndChar

StartChar: h
Encoding: 104 104 71
Width: 607
Flags: HW
LayerCount: 2
Fore
SplineSet
92 796 m 1
 183 796 l 1
 183 578 l 1
 180 466 l 1
 205.333333333 491.333333333 232.333333333 512.833333333 261 530.5 c 128
 289.666666667 548.166666667 322.666666667 557 360 557 c 0
 417.333333333 557 459.333333333 539 486 503 c 128
 512.666666667 467 526 414 526 344 c 2
 526 0 l 1
 435 0 l 1
 435 332 l 2
 435 383.333333333 426.833333333 420.333333333 410.5 443 c 128
 394.166666667 465.666666667 368 477 332 477 c 0
 304 477 279 470 257 456 c 128
 235 442 210.333333333 421.333333333 183 394 c 1
 183 0 l 1
 92 0 l 1
 92 796 l 1
EndSplineSet
EndChar

StartChar: i
Encoding: 105 105 72
Width: 275
Flags: HW
LayerCount: 2
Fore
SplineSet
138 655 m 256
 120 655 105 660.5 93 671.5 c 128
 81 682.5 75 696.666666667 75 714 c 0
 75 732.666666667 81 747.166666667 93 757.5 c 128
 105 767.833333333 120 773 138 773 c 256
 156 773 171 767.833333333 183 757.5 c 128
 195 747.166666667 201 732.666666667 201 714 c 0
 201 696.666666667 195 682.5 183 671.5 c 128
 171 660.5 156 655 138 655 c 256
92 543 m 1
 183 543 l 1
 183 0 l 1
 92 0 l 1
 92 543 l 1
EndSplineSet
EndChar

StartChar: j
Encoding: 106 106 73
Width: 275
Flags: HW
LayerCount: 2
Fore
SplineSet
139 655 m 0
 121 655 106 660.5 94 671.5 c 128
 82 682.5 76 696.666666667 76 714 c 0
 76 732.666666667 82 747.166666667 94 757.5 c 128
 106 767.833333333 121 773 139 773 c 0
 156.333333333 773 171.166666667 767.833333333 183.5 757.5 c 128
 195.833333333 747.166666667 202 732.666666667 202 714 c 0
 202 696.666666667 195.833333333 682.5 183.5 671.5 c 128
 171.166666667 660.5 156.333333333 655 139 655 c 0
36 -243 m 0
 19.3333333333 -243 4.16666666667 -241.5 -9.5 -238.5 c 128
 -23.1666666667 -235.5 -34.6666666667 -232.333333333 -44 -229 c 1
 -26 -159 l 1
 -18.6666666667 -161.666666667 -10.6666666667 -164 -2 -166 c 128
 6.66666666667 -168 15.6666666667 -169 25 -169 c 0
 52.3333333333 -169 70.5 -159.5 79.5 -140.5 c 128
 88.5 -121.5 93 -95.3333333333 93 -62 c 2
 93 543 l 1
 184 543 l 1
 184 -62 l 2
 184 -117.333333333 172.666666667 -161.333333333 150 -194 c 128
 127.333333333 -226.666666667 89.3333333333 -243 36 -243 c 0
EndSplineSet
EndChar

StartChar: k
Encoding: 107 107 74
Width: 552
Flags: HW
LayerCount: 2
Fore
SplineSet
92 796 m 1
 182 796 l 1
 182 256 l 1
 184 256 l 1
 417 543 l 1
 518 543 l 1
 336 325 l 1
 542 0 l 1
 443 0 l 1
 284 262 l 1
 182 143 l 1
 182 0 l 1
 92 0 l 1
 92 796 l 1
EndSplineSet
EndChar

StartChar: l
Encoding: 108 108 75
Width: 285
Flags: HW
LayerCount: 2
Fore
SplineSet
188 -13 m 0
 154 -13 129.5 -2.5 114.5 18.5 c 128
 99.5 39.5 92 69.3333333333 92 108 c 2
 92 796 l 1
 183 796 l 1
 183 102 l 2
 183 88 185.5 78 190.5 72 c 128
 195.5 66 201.666666667 63 209 63 c 0
 213 63 213 63 216.5 63 c 128
 218.833333333 63 222.666666667 63.6666666667 228 65 c 1
 241 -5 l 1
 234.333333333 -7.66666666667 226.833333333 -9.66666666667 218.5 -11 c 128
 210.166666667 -12.3333333333 200 -13 188 -13 c 0
EndSplineSet
EndChar

StartChar: m
Encoding: 109 109 76
Width: 926
Flags: HW
LayerCount: 2
Fore
SplineSet
92 543 m 1
 167 543 l 1
 175 464 l 1
 178 464 l 1
 201.333333333 490 227.166666667 512 255.5 530 c 128
 283.833333333 548 314.333333333 557 347 557 c 0
 389 557 421.666666667 547.666666667 445 529 c 128
 468.333333333 510.333333333 485.666666667 485 497 453 c 1
 525 483.666666667 553.5 508.666666667 582.5 528 c 128
 611.5 547.333333333 642.666666667 557 676 557 c 0
 732.666666667 557 774.333333333 539 801 503 c 128
 827.666666667 467 841 414 841 344 c 2
 841 0 l 1
 750 0 l 1
 750 332 l 2
 750 383.333333333 741.833333333 420.333333333 725.5 443 c 128
 709.166666667 465.666666667 683.666666667 477 649 477 c 0
 608.333333333 477 562.666666667 449.333333333 512 394 c 1
 512 0 l 1
 421 0 l 1
 421 332 l 2
 421 383.333333333 412.833333333 420.333333333 396.5 443 c 128
 380.166666667 465.666666667 354.666666667 477 320 477 c 0
 278 477 232.333333333 449.333333333 183 394 c 1
 183 0 l 1
 92 0 l 1
 92 543 l 1
EndSplineSet
EndChar

StartChar: n
Encoding: 110 110 77
Width: 611
Flags: HW
LayerCount: 2
Fore
SplineSet
92 543 m 1
 167 543 l 1
 175 465 l 1
 178 465 l 1
 204 490.333333333 231.5 512 260.5 530 c 128
 289.5 548 322.666666667 557 360 557 c 0
 417.333333333 557 459.333333333 539 486 503 c 128
 512.666666667 467 526 414 526 344 c 2
 526 0 l 1
 435 0 l 1
 435 332 l 2
 435 383.333333333 426.833333333 420.333333333 410.5 443 c 128
 394.166666667 465.666666667 368 477 332 477 c 0
 304 477 279 470 257 456 c 128
 235 442 210.333333333 421.333333333 183 394 c 1
 183 0 l 1
 92 0 l 1
 92 543 l 1
EndSplineSet
EndChar

StartChar: o
Encoding: 111 111 78
Width: 606
Flags: HW
LayerCount: 2
Fore
SplineSet
303 -13 m 256
 269.666666667 -13 237.833333333 -6.66666666667 207.5 6 c 128
 177.166666667 18.6666666667 150.333333333 37.1666666667 127 61.5 c 128
 103.666666667 85.8333333333 85.1666666667 115.666666667 71.5 151 c 128
 57.8333333333 186.333333333 51 226.333333333 51 271 c 0
 51 316.333333333 57.8333333333 356.666666667 71.5 392 c 128
 85.1666666667 427.333333333 103.666666667 457.333333333 127 482 c 128
 150.333333333 506.666666667 177.166666667 525.333333333 207.5 538 c 128
 237.833333333 550.666666667 269.666666667 557 303 557 c 256
 336.333333333 557 368.166666667 550.666666667 398.5 538 c 128
 428.833333333 525.333333333 455.666666667 506.666666667 479 482 c 128
 502.333333333 457.333333333 520.833333333 427.333333333 534.5 392 c 128
 548.166666667 356.666666667 555 316.333333333 555 271 c 0
 555 226.333333333 548.166666667 186.333333333 534.5 151 c 128
 520.833333333 115.666666667 502.333333333 85.8333333333 479 61.5 c 128
 455.666666667 37.1666666667 428.833333333 18.6666666667 398.5 6 c 128
 368.166666667 -6.66666666667 336.333333333 -13 303 -13 c 256
303 63 m 256
 326.333333333 63 347.666666667 68 367 78 c 128
 386.333333333 88 403 102 417 120 c 128
 431 138 441.833333333 159.833333333 449.5 185.5 c 128
 457.166666667 211.166666667 461 239.666666667 461 271 c 256
 461 302.333333333 457.166666667 330.833333333 449.5 356.5 c 128
 441.833333333 382.166666667 431 404.333333333 417 423 c 128
 403 441.666666667 386.333333333 456 367 466 c 128
 347.666666667 476 326.333333333 481 303 481 c 256
 279.666666667 481 258.333333333 476 239 466 c 128
 219.666666667 456 203.166666667 441.666666667 189.5 423 c 128
 175.833333333 404.333333333 165.166666667 382.166666667 157.5 356.5 c 128
 149.833333333 330.833333333 146 302.333333333 146 271 c 256
 146 239.666666667 149.833333333 211.166666667 157.5 185.5 c 128
 165.166666667 159.833333333 175.833333333 138 189.5 120 c 128
 203.166666667 102 219.666666667 88 239 78 c 128
 258.333333333 68 279.666666667 63 303 63 c 256
EndSplineSet
EndChar

StartChar: p
Encoding: 112 112 79
Width: 620
Flags: HW
LayerCount: 2
Fore
SplineSet
92 543 m 1
 167 543 l 1
 175 481 l 1
 178 481 l 1
 202.666666667 501 229.666666667 518.666666667 259 534 c 128
 288.333333333 549.333333333 319 557 351 557 c 0
 386.333333333 557 417.333333333 550.333333333 444 537 c 128
 470.666666667 523.666666667 493.166666667 505 511.5 481 c 128
 529.833333333 457 543.666666667 428 553 394 c 128
 562.333333333 360 567 322 567 280 c 0
 567 233.333333333 560.5 191.833333333 547.5 155.5 c 128
 534.5 119.166666667 517.166666667 88.5 495.5 63.5 c 128
 473.833333333 38.5 448.833333333 19.5 420.5 6.5 c 128
 392.166666667 -6.5 362.333333333 -13 331 -13 c 0
 306.333333333 -13 281.333333333 -7.5 256 3.5 c 128
 230.666666667 14.5 205.666666667 30 181 50 c 1
 183 -45 l 1
 183 -229 l 1
 92 -229 l 1
 92 543 l 1
316 63 m 0
 338.666666667 63 359.5 68 378.5 78 c 128
 397.5 88 414 102.166666667 428 120.5 c 128
 442 138.833333333 452.833333333 161.333333333 460.5 188 c 128
 468.166666667 214.666666667 472 245 472 279 c 0
 472 309 469.333333333 336.333333333 464 361 c 128
 458.666666667 385.666666667 450.333333333 406.833333333 439 424.5 c 128
 427.666666667 442.166666667 413 455.833333333 395 465.5 c 128
 377 475.166666667 355 480 329 480 c 0
 305.666666667 480 282.166666667 473.666666667 258.5 461 c 128
 234.833333333 448.333333333 209.666666667 429.666666667 183 405 c 1
 183 120 l 1
 207.666666667 98.6666666667 231.5 83.8333333333 254.5 75.5 c 128
 277.5 67.1666666667 298 63 316 63 c 0
EndSplineSet
EndChar

StartChar: q
Encoding: 113 113 80
Width: 620
Flags: HW
LayerCount: 2
Fore
SplineSet
436 -36 m 1
 441 63 l 1
 419 41.6666666667 394.166666667 23.6666666667 366.5 9 c 128
 338.833333333 -5.66666666667 309 -13 277 -13 c 0
 243 -13 212.166666667 -6.66666666667 184.5 6 c 128
 156.833333333 18.6666666667 133.333333333 37 114 61 c 128
 94.6666666667 85 79.6666666667 114.666666667 69 150 c 128
 58.3333333333 185.333333333 53 225.666666667 53 271 c 0
 53 315 59.5 354.666666667 72.5 390 c 128
 85.5 425.333333333 102.666666667 455.333333333 124 480 c 128
 145.333333333 504.666666667 170.333333333 523.666666667 199 537 c 128
 227.666666667 550.333333333 257.333333333 557 288 557 c 0
 320 557 348 551.333333333 372 540 c 128
 396 528.666666667 419.666666667 512.333333333 443 491 c 1
 446 491 l 1
 455 543 l 1
 527 543 l 1
 527 -229 l 1
 436 -229 l 1
 436 -36 l 1
297 63 m 0
 322.333333333 63 346.166666667 69.1666666667 368.5 81.5 c 128
 390.833333333 93.8333333333 413.333333333 112.666666667 436 138 c 1
 436 423 l 1
 412.666666667 443.666666667 390.5 458.333333333 369.5 467 c 128
 348.5 475.666666667 326.666666667 480 304 480 c 0
 282 480 261.5 475 242.5 465 c 128
 223.5 455 206.833333333 440.833333333 192.5 422.5 c 128
 178.166666667 404.166666667 167 382.333333333 159 357 c 128
 151 331.666666667 147 303.333333333 147 272 c 0
 147 206 160 154.666666667 186 118 c 128
 212 81.3333333333 249 63 297 63 c 0
EndSplineSet
EndChar

StartChar: r
Encoding: 114 114 81
Width: 388
Flags: HW
LayerCount: 2
Fore
SplineSet
92 543 m 1
 167 543 l 1
 175 444 l 1
 178 444 l 1
 197.333333333 478.666666667 220.166666667 506.166666667 246.5 526.5 c 128
 272.833333333 546.833333333 301.333333333 557 332 557 c 0
 344 557 354.5 556.166666667 363.5 554.5 c 128
 372.5 552.833333333 381.333333333 549.666666667 390 545 c 1
 373 465 l 1
 363.666666667 468.333333333 355.333333333 470.666666667 348 472 c 128
 340.666666667 473.333333333 331.333333333 474 320 474 c 256
 308.666666667 474 296.833333333 471.833333333 284.5 467.5 c 128
 272.166666667 463.166666667 260 456.166666667 248 446.5 c 128
 236 436.833333333 224.5 424 213.5 408 c 128
 202.5 392 192.333333333 372.333333333 183 349 c 1
 183 0 l 1
 92 0 l 1
 92 543 l 1
EndSplineSet
EndChar

StartChar: s
Encoding: 115 115 82
Width: 468
Flags: HW
LayerCount: 2
Fore
SplineSet
234 -13 m 0
 195.333333333 -13 158.333333333 -5.83333333333 123 8.5 c 128
 87.6666666667 22.8333333333 57 40.6666666667 31 62 c 1
 76 122 l 1
 99.3333333333 102.666666667 123.833333333 87.1666666667 149.5 75.5 c 128
 175.166666667 63.8333333333 204.333333333 58 237 58 c 0
 273 58 299.833333333 66.3333333333 317.5 83 c 128
 335.166666667 99.6666666667 344 119.666666667 344 143 c 0
 344 157 340.333333333 169.166666667 333 179.5 c 128
 325.666666667 189.833333333 316.166666667 199 304.5 207 c 128
 292.833333333 215 279.666666667 222 265 228 c 128
 250.333333333 234 235.333333333 240 220 246 c 0
 201.333333333 253.333333333 182.333333333 261.166666667 163 269.5 c 128
 143.666666667 277.833333333 126.166666667 288.166666667 110.5 300.5 c 128
 94.8333333333 312.833333333 82.1666666667 327.333333333 72.5 344 c 128
 62.8333333333 360.666666667 58 380.333333333 58 403 c 0
 58 424.333333333 62.1666666667 444.333333333 70.5 463 c 128
 78.8333333333 481.666666667 91 498 107 512 c 128
 123 526 142.666666667 537 166 545 c 128
 189.333333333 553 215.666666667 557 245 557 c 0
 279 557 310.333333333 551 339 539 c 128
 367.666666667 527 392.666666667 512.666666667 414 496 c 1
 370 437 l 1
 350.666666667 451 331.166666667 462.5 311.5 471.5 c 128
 291.833333333 480.5 269.666666667 485 245 485 c 0
 211 485 186 477.333333333 170 462 c 128
 154 446.666666667 146 428.333333333 146 407 c 0
 146 394.333333333 149.333333333 383.333333333 156 374 c 128
 162.666666667 364.666666667 171.666666667 356.5 183 349.5 c 128
 194.333333333 342.5 207.166666667 336.166666667 221.5 330.5 c 128
 235.833333333 324.833333333 250.666666667 319 266 313 c 0
 286 305.666666667 305.833333333 297.666666667 325.5 289 c 128
 345.166666667 280.333333333 362.833333333 269.833333333 378.5 257.5 c 128
 394.166666667 245.166666667 407 230.333333333 417 213 c 128
 427 195.666666667 432 174 432 148 c 0
 432 126 427.666666667 105.166666667 419 85.5 c 128
 410.333333333 65.8333333333 397.666666667 48.8333333333 381 34.5 c 128
 364.333333333 20.1666666667 343.666666667 8.66666666667 319 0 c 128
 294.333333333 -8.66666666667 266 -13 234 -13 c 0
EndSplineSet
EndChar

StartChar: t
Encoding: 116 116 83
Width: 377
Flags: HW
LayerCount: 2
Fore
SplineSet
263 -13 m 0
 234.333333333 -13 210 -8.66666666667 190 0 c 128
 170 8.66666666667 154 20.8333333333 142 36.5 c 128
 130 52.1666666667 121.333333333 71.1666666667 116 93.5 c 128
 110.666666667 115.833333333 108 140.666666667 108 168 c 2
 108 469 l 1
 27 469 l 1
 27 538 l 1
 112 543 l 1
 123 695 l 1
 199 695 l 1
 199 543 l 1
 346 543 l 1
 346 469 l 1
 199 469 l 1
 199 166 l 2
 199 132 205 106 217 88 c 128
 229 70 251 61 283 61 c 0
 292.333333333 61 302.666666667 62.5 314 65.5 c 128
 325.333333333 68.5 335.666666667 71.6666666667 345 75 c 1
 363 7 l 1
 347.666666667 1.66666666667 331.333333333 -3 314 -7 c 128
 296.666666667 -11 279.666666667 -13 263 -13 c 0
EndSplineSet
EndChar

StartChar: u
Encoding: 117 117 84
Width: 607
Flags: HW
LayerCount: 2
Fore
SplineSet
250 -13 m 0
 192.666666667 -13 150.833333333 5 124.5 41 c 128
 98.1666666667 77 85 129.666666667 85 199 c 2
 85 543 l 1
 176 543 l 1
 176 210 l 2
 176 159.333333333 184 122.666666667 200 100 c 128
 216 77.3333333333 242 66 278 66 c 0
 306 66 331 73.1666666667 353 87.5 c 128
 375 101.833333333 399 125.333333333 425 158 c 1
 425 543 l 1
 516 543 l 1
 516 0 l 1
 440 0 l 1
 433 85 l 1
 430 85 l 1
 404.666666667 55.6666666667 377.666666667 32 349 14 c 128
 320.333333333 -4 287.333333333 -13 250 -13 c 0
EndSplineSet
EndChar

StartChar: v
Encoding: 118 118 85
Width: 521
Flags: HW
LayerCount: 2
Fore
SplineSet
13 543 m 1
 108 543 l 1
 210 234 l 2
 218.666666667 207.333333333 227.166666667 180.333333333 235.5 153 c 128
 243.833333333 125.666666667 252.333333333 99.3333333333 261 74 c 1
 265 74 l 1
 273 99.3333333333 281.333333333 125.666666667 290 153 c 128
 298.666666667 180.333333333 307 207.333333333 315 234 c 2
 418 543 l 1
 508 543 l 1
 315 0 l 1
 209 0 l 1
 13 543 l 1
EndSplineSet
EndChar

StartChar: w
Encoding: 119 119 86
Width: 802
Flags: HW
LayerCount: 2
Fore
SplineSet
27 543 m 1
 120 543 l 1
 201 229 l 2
 206.333333333 203 211.666666667 177.5 217 152.5 c 128
 222.333333333 127.5 227.666666667 102.333333333 233 77 c 1
 238 77 l 1
 244 102.333333333 249.833333333 127.666666667 255.5 153 c 128
 261.166666667 178.333333333 267.666666667 203.666666667 275 229 c 2
 359 543 l 1
 448 543 l 1
 533 229 l 2
 539.666666667 203 546 177.5 552 152.5 c 128
 558 127.5 564.333333333 102.333333333 571 77 c 1
 575 77 l 1
 581 102.333333333 586.666666667 127.5 592 152.5 c 128
 597.333333333 177.5 603 203 609 229 c 2
 689 543 l 1
 775 543 l 1
 629 0 l 1
 519 0 l 1
 440 293 l 2
 432.666666667 318.333333333 426.333333333 343.666666667 421 369 c 128
 415.666666667 394.333333333 409.666666667 421 403 449 c 1
 398 449 l 1
 392 421 386.166666667 394.166666667 380.5 368.5 c 128
 374.833333333 342.833333333 368.333333333 317 361 291 c 2
 285 0 l 1
 178 0 l 1
 27 543 l 1
EndSplineSet
EndChar

StartChar: x
Encoding: 120 120 87
Width: 498
Flags: HW
LayerCount: 2
Fore
SplineSet
194 283 m 1
 29 543 l 1
 127 543 l 1
 200 423 l 2
 208.666666667 407.666666667 217.5 392.666666667 226.5 378 c 128
 235.5 363.333333333 244.666666667 348.333333333 254 333 c 1
 258 333 l 1
 266.666666667 348.333333333 275 363.333333333 283 378 c 128
 291 392.666666667 299 407.666666667 307 423 c 2
 374 543 l 1
 469 543 l 1
 304 274 l 1
 483 0 l 1
 383 0 l 1
 303 127 l 2
 293.666666667 143.666666667 284.166666667 160.166666667 274.5 176.5 c 128
 264.833333333 192.833333333 255 208.666666667 245 224 c 1
 240 224 l 1
 230.666666667 208.666666667 221.333333333 192.833333333 212 176.5 c 128
 202.666666667 160.166666667 193.333333333 143.666666667 184 127 c 2
 111 0 l 1
 15 0 l 1
 194 283 l 1
EndSplineSet
EndChar

StartChar: y
Encoding: 121 121 88
Width: 521
Flags: HW
LayerCount: 2
Fore
SplineSet
101 -234 m 0
 76.3333333333 -234 55 -230.333333333 37 -223 c 1
 55 -150 l 1
 60.3333333333 -152 66.6666666667 -154 74 -156 c 128
 81.3333333333 -158 88.6666666667 -159 96 -159 c 0
 127.333333333 -159 152.833333333 -148 172.5 -126 c 128
 192.166666667 -104 207.666666667 -76 219 -42 c 2
 231 -1 l 1
 13 543 l 1
 108 543 l 1
 219 241 l 2
 227 217.666666667 235.5 192.666666667 244.5 166 c 128
 253.5 139.333333333 262.333333333 113.666666667 271 89 c 1
 276 89 l 1
 283.333333333 113.666666667 291 139.166666667 299 165.5 c 128
 307 191.833333333 314.666666667 217 322 241 c 2
 419 543 l 1
 508 543 l 1
 303 -45 l 2
 293.666666667 -71.6666666667 282.833333333 -96.5 270.5 -119.5 c 128
 258.166666667 -142.5 244 -162.5 228 -179.5 c 128
 212 -196.5 193.666666667 -209.833333333 173 -219.5 c 128
 152.333333333 -229.166666667 128.333333333 -234 101 -234 c 0
EndSplineSet
EndChar

StartChar: z
Encoding: 122 122 89
Width: 474
Flags: HW
LayerCount: 2
Fore
SplineSet
35 49 m 1
 321 469 l 1
 66 469 l 1
 66 543 l 1
 436 543 l 1
 436 494 l 1
 150 74 l 1
 446 74 l 1
 446 0 l 1
 35 0 l 1
 35 49 l 1
EndSplineSet
EndChar

StartChar: braceleft
Encoding: 123 123 90
Width: 338
Flags: HW
LayerCount: 2
Fore
SplineSet
255 -170 m 2
 233 -170 213.666666667 -167.666666667 197 -163 c 128
 180.333333333 -158.333333333 166.666666667 -150.333333333 156 -139 c 128
 145.333333333 -127.666666667 137.333333333 -112.5 132 -93.5 c 128
 126.666666667 -74.5 124 -50.3333333333 124 -21 c 0
 124 -1 124.5 18 125.5 36 c 128
 126.5 54 127.666666667 71.5 129 88.5 c 128
 130.333333333 105.5 131.5 122.666666667 132.5 140 c 128
 133.5 157.333333333 134 175.333333333 134 194 c 0
 134 205.333333333 132.5 216.166666667 129.5 226.5 c 128
 126.5 236.833333333 121.5 246 114.5 254 c 128
 107.5 262 97.8333333333 268.666666667 85.5 274 c 128
 73.1666666667 279.333333333 57.3333333333 282 38 282 c 1
 38 339 l 1
 57.3333333333 339 73.1666666667 341.666666667 85.5 347 c 128
 97.8333333333 352.333333333 107.5 359 114.5 367 c 128
 121.5 375 126.5 384.166666667 129.5 394.5 c 128
 132.5 404.833333333 134 415.333333333 134 426 c 0
 134 445.333333333 133.5 463.5 132.5 480.5 c 128
 131.5 497.5 130.333333333 514.666666667 129 532 c 128
 127.666666667 549.333333333 126.5 567 125.5 585 c 128
 124.5 603 124 622 124 642 c 0
 124 671.333333333 126.666666667 695.5 132 714.5 c 128
 137.333333333 733.5 145.333333333 748.666666667 156 760 c 128
 166.666666667 771.333333333 180.333333333 779.333333333 197 784 c 128
 213.666666667 788.666666667 233 791 255 791 c 2
 304 791 l 1
 304 740 l 1
 275 740 l 2
 245 740 224.833333333 731.833333333 214.5 715.5 c 128
 204.166666667 699.166666667 199 673 199 637 c 0
 199 603 200 570.333333333 202 539 c 128
 204 507.666666667 205 472.666666667 205 434 c 0
 205 398 200 370.5 190 351.5 c 128
 180 332.5 162.666666667 319.666666667 138 313 c 1
 138 309 l 1
 162.666666667 301.666666667 180 288.5 190 269.5 c 128
 200 250.5 205 223 205 187 c 0
 205 149 204 114.166666667 202 82.5 c 128
 200 50.8333333333 199 18 199 -16 c 0
 199 -52 204.166666667 -78 214.5 -94 c 128
 224.833333333 -110 245 -118 275 -118 c 2
 304 -118 l 1
 304 -170 l 1
 255 -170 l 2
EndSplineSet
EndChar

StartChar: bar
Encoding: 124 124 91
Width: 269
Flags: HW
LayerCount: 2
Fore
SplineSet
103 838 m 1
 167 838 l 1
 167 -279 l 1
 103 -279 l 1
 103 838 l 1
EndSplineSet
EndChar

StartChar: braceright
Encoding: 125 125 92
Width: 338
Flags: HW
LayerCount: 2
Fore
SplineSet
34 -118 m 1
 63 -118 l 2
 93.6666666667 -118 114 -110 124 -94 c 128
 134 -78 139 -52 139 -16 c 0
 139 18 138.166666667 50.8333333333 136.5 82.5 c 128
 134.833333333 114.166666667 134 149 134 187 c 0
 134 223 139 250.5 149 269.5 c 128
 159 288.5 176 301.666666667 200 309 c 1
 200 313 l 1
 176 319.666666667 159 332.5 149 351.5 c 128
 139 370.5 134 398 134 434 c 0
 134 472.666666667 134.833333333 507.666666667 136.5 539 c 128
 138.166666667 570.333333333 139 603 139 637 c 0
 139 673 134 699.166666667 124 715.5 c 128
 114 731.833333333 93.6666666667 740 63 740 c 2
 34 740 l 1
 34 791 l 1
 84 791 l 2
 106 791 125.166666667 788.666666667 141.5 784 c 128
 157.833333333 779.333333333 171.333333333 771.333333333 182 760 c 128
 192.666666667 748.666666667 200.666666667 733.5 206 714.5 c 128
 211.333333333 695.5 214 671.333333333 214 642 c 0
 214 622 213.5 603 212.5 585 c 128
 211.5 567 210.5 549.333333333 209.5 532 c 128
 208.5 514.666666667 207.5 497.5 206.5 480.5 c 128
 205.5 463.5 205 445.333333333 205 426 c 0
 205 415.333333333 206.333333333 404.833333333 209 394.5 c 128
 211.666666667 384.166666667 216.666666667 375 224 367 c 128
 231.333333333 359 241.166666667 352.333333333 253.5 347 c 128
 265.833333333 341.666666667 281.333333333 339 300 339 c 1
 300 282 l 1
 281.333333333 282 265.833333333 279.333333333 253.5 274 c 128
 241.166666667 268.666666667 231.333333333 262 224 254 c 128
 216.666666667 246 211.666666667 236.833333333 209 226.5 c 128
 206.333333333 216.166666667 205 205.333333333 205 194 c 0
 205 175.333333333 205.5 157.333333333 206.5 140 c 128
 207.5 122.666666667 208.5 105.5 209.5 88.5 c 128
 210.5 71.5 211.5 54 212.5 36 c 128
 213.5 18 214 -1 214 -21 c 0
 214 -50.3333333333 211.333333333 -74.5 206 -93.5 c 128
 200.666666667 -112.5 192.666666667 -127.666666667 182 -139 c 128
 171.333333333 -150.333333333 157.833333333 -158.333333333 141.5 -163 c 128
 125.166666667 -167.666666667 106 -170 84 -170 c 2
 34 -170 l 1
 34 -118 l 1
EndSplineSet
EndChar

StartChar: asciitilde
Encoding: 126 126 93
Width: 555
Flags: HW
LayerCount: 2
Fore
SplineSet
376 287 m 0
 354 287 334.166666667 292 316.5 302 c 128
 298.833333333 312 282.333333333 322.833333333 267 334.5 c 128
 251.666666667 346.166666667 236.833333333 357 222.5 367 c 128
 208.166666667 377 193 382 177 382 c 256
 161 382 146 376.666666667 132 366 c 128
 118 355.333333333 104.333333333 338 91 314 c 1
 40 350 l 1
 60.6666666667 385.333333333 83 410.833333333 107 426.5 c 128
 131 442.166666667 155.333333333 450 180 450 c 0
 202 450 221.666666667 445.166666667 239 435.5 c 128
 256.333333333 425.833333333 272.666666667 415 288 403 c 128
 303.333333333 391 318.166666667 380.166666667 332.5 370.5 c 128
 346.833333333 360.833333333 362 356 378 356 c 256
 394 356 409 361.333333333 423 372 c 128
 437 382.666666667 450.333333333 400 463 424 c 1
 515 387 l 1
 494.333333333 351.666666667 472 326.166666667 448 310.5 c 128
 424 294.833333333 400 287 376 287 c 0
EndSplineSet
EndChar

StartChar: uniFF1F
Encoding: 65311 65311 94
Width: 1000
Flags: HW
LayerCount: 2
Fore
SplineSet
445 242 m 1
 439.666666667 270 441.166666667 294.666666667 449.5 316 c 128
 457.833333333 337.333333333 469.5 356.833333333 484.5 374.5 c 128
 499.5 392.166666667 516.666666667 408.666666667 536 424 c 128
 555.333333333 439.333333333 573.333333333 454.333333333 590 469 c 128
 606.666666667 483.666666667 620.833333333 499 632.5 515 c 128
 644.166666667 531 650 548.333333333 650 567 c 0
 650 601.666666667 637.5 630.166666667 612.5 652.5 c 128
 587.5 674.833333333 549.333333333 686 498 686 c 0
 464 686 431 678.5 399 663.5 c 128
 367 648.5 337 625.666666667 309 595 c 1
 255 645 l 1
 288.333333333 680.333333333 325.166666667 708.5 365.5 729.5 c 128
 405.833333333 750.5 453.333333333 761 508 761 c 0
 543.333333333 761 575.166666667 756.666666667 603.5 748 c 128
 631.833333333 739.333333333 656 726.833333333 676 710.5 c 128
 696 694.166666667 711.5 674.5 722.5 651.5 c 128
 733.5 628.5 739 602.666666667 739 574 c 0
 739 548.666666667 733.166666667 526.5 721.5 507.5 c 128
 709.833333333 488.5 695.333333333 470.833333333 678 454.5 c 128
 660.666666667 438.166666667 642.333333333 422.5 623 407.5 c 128
 603.666666667 392.5 586 377 570 361 c 128
 554 345 541.666666667 327.5 533 308.5 c 128
 524.333333333 289.5 522.333333333 267.333333333 527 242 c 1
 445 242 l 1
407 74 m 256
 407 98 415 117 431 131 c 128
 447 145 466 152 488 152 c 256
 510 152 528.833333333 145 544.5 131 c 128
 560.166666667 117 568 98 568 74 c 256
 568 50 560.166666667 30.8333333333 544.5 16.5 c 128
 528.833333333 2.16666666667 510 -5 488 -5 c 256
 466 -5 447 2.16666666667 431 16.5 c 128
 415 30.8333333333 407 50 407 74 c 256
EndSplineSet
EndChar

StartChar: uniFF01
Encoding: 65281 65281 95
Width: 1000
Flags: HW
LayerCount: 2
Fore
SplineSet
443 630 m 1
 440 748 l 1
 560 748 l 1
 558 630 l 1
 533 242 l 1
 467 242 l 1
 443 630 l 1
500 -5 m 256
 478 -5 459.166666667 2 443.5 16 c 128
 427.833333333 30 420 49.3333333333 420 74 c 0
 420 97.3333333333 427.833333333 116.166666667 443.5 130.5 c 128
 459.166666667 144.833333333 478 152 500 152 c 256
 522 152 540.833333333 144.833333333 556.5 130.5 c 128
 572.166666667 116.166666667 580 97.3333333333 580 74 c 0
 580 49.3333333333 572.166666667 30 556.5 16 c 128
 540.833333333 2 522 -5 500 -5 c 256
EndSplineSet
EndChar

StartChar: uniFF1B
Encoding: 65307 65307 96
Width: 1000
Flags: HW
LayerCount: 2
Fore
SplineSet
500 544 m 256
 480 544 462.5 550.666666667 447.5 564 c 128
 432.5 577.333333333 425 595.666666667 425 619 c 256
 425 642.333333333 432.5 660.666666667 447.5 674 c 128
 462.5 687.333333333 480 694 500 694 c 256
 520 694 537.666666667 687.333333333 553 674 c 128
 568.333333333 660.666666667 576 642.333333333 576 619 c 256
 576 595.666666667 568.333333333 577.333333333 553 564 c 128
 537.666666667 550.666666667 520 544 500 544 c 256
396 -50 m 1
 436.666666667 -31.3333333333 467.666666667 -8.5 489 18.5 c 128
 510.333333333 45.5 521.666666667 78.6666666667 523 118 c 1
 519.666666667 116.666666667 516.666666667 116 514 116 c 128
 510 116 510 116 505 116 c 0
 484.333333333 116 466.666666667 122 452 134 c 128
 437.333333333 146 430 164 430 188 c 0
 430 211.333333333 437.666666667 229.166666667 453 241.5 c 128
 468.333333333 253.833333333 486 260 506 260 c 0
 534 260 555.333333333 249.166666667 570 227.5 c 128
 584.666666667 205.833333333 592 176 592 138 c 0
 592 79.3333333333 576.666666667 29.6666666667 546 -11 c 128
 515.333333333 -51.6666666667 473 -82.3333333333 419 -103 c 1
 396 -50 l 1
EndSplineSet
EndChar

StartChar: uniFF1A
Encoding: 65306 65306 97
Width: 1000
Flags: HW
LayerCount: 2
Fore
SplineSet
500 544 m 256
 480 544 462.333333333 550.666666667 447 564 c 128
 431.666666667 577.333333333 424 595.666666667 424 619 c 256
 424 642.333333333 431.666666667 660.666666667 447 674 c 128
 462.333333333 687.333333333 480 694 500 694 c 256
 520 694 537.666666667 687.333333333 553 674 c 128
 568.333333333 660.666666667 576 642.333333333 576 619 c 256
 576 595.666666667 568.333333333 577.333333333 553 564 c 128
 537.666666667 550.666666667 520 544 500 544 c 256
500 54 m 256
 480 54 462.333333333 60.8333333333 447 74.5 c 128
 431.666666667 88.1666666667 424 106.333333333 424 129 c 0
 424 152.333333333 431.666666667 170.833333333 447 184.5 c 128
 462.333333333 198.166666667 480 205 500 205 c 256
 520 205 537.666666667 198.166666667 553 184.5 c 128
 568.333333333 170.833333333 576 152.333333333 576 129 c 0
 576 106.333333333 568.333333333 88.1666666667 553 74.5 c 128
 537.666666667 60.8333333333 520 54 500 54 c 256
EndSplineSet
EndChar

StartChar: uniFF0C
Encoding: 65292 65292 98
Width: 1000
Flags: HW
LayerCount: 2
Fore
SplineSet
396 241 m 1
 434.666666667 257 464.666666667 277 486 301 c 128
 507.333333333 325 519.333333333 354 522 388 c 1
 518.666666667 387.333333333 515.833333333 387 513.5 387 c 128
 510 387 510 387 505 387 c 0
 484.333333333 387 466.666666667 393 452 405 c 128
 437.333333333 417 430 434.666666667 430 458 c 256
 430 481.333333333 437.5 499.166666667 452.5 511.5 c 128
 467.5 523.833333333 485.333333333 530 506 530 c 0
 534 530 555.166666667 519.666666667 569.5 499 c 128
 583.833333333 478.333333333 591 450.333333333 591 415 c 0
 591 361 575.333333333 314.333333333 544 275 c 128
 512.666666667 235.666666667 470.666666667 206.666666667 418 188 c 1
 396 241 l 1
EndSplineSet
EndChar

StartChar: uni3001
Encoding: 12289 12289 100
Width: 1000
Flags: HW
LayerCount: 2
Fore
SplineSet
421 514 m 1
 439 499.333333333 457.833333333 483 477.5 465 c 128
 497.166666667 447 516.833333333 428.333333333 536.5 409 c 128
 556.166666667 389.666666667 575.333333333 370 594 350 c 128
 612.666666667 330 629.666666667 310.666666667 645 292 c 1
 577 235 l 1
 544.333333333 275 508.333333333 314.666666667 469 354 c 128
 429.666666667 393.333333333 392 427.666666667 356 457 c 1
 421 514 l 1
EndSplineSet
EndChar

StartChar: uni3002
Encoding: 12290 12290 101
Width: 1000
Flags: HW
LayerCount: 2
Fore
SplineSet
351 379 m 0
 351 400.333333333 355 420.166666667 363 438.5 c 128
 371 456.833333333 382 472.833333333 396 486.5 c 128
 410 500.166666667 426.166666667 511 444.5 519 c 128
 462.833333333 527 482.333333333 531 503 531 c 0
 524.333333333 531 544.166666667 527 562.5 519 c 128
 580.833333333 511 596.833333333 500.166666667 610.5 486.5 c 128
 624.166666667 472.833333333 635 456.833333333 643 438.5 c 128
 651 420.166666667 655 400.333333333 655 379 c 0
 655 358.333333333 651 338.666666667 643 320 c 128
 635 301.333333333 624.166666667 285.166666667 610.5 271.5 c 128
 596.833333333 257.833333333 580.833333333 247 562.5 239 c 128
 544.166666667 231 524.333333333 227 503 227 c 0
 482.333333333 227 462.833333333 231 444.5 239 c 128
 426.166666667 247 410 257.833333333 396 271.5 c 128
 382 285.166666667 371 301.333333333 363 320 c 128
 355 338.666666667 351 358.333333333 351 379 c 0
402 379 m 256
 402 365 404.666666667 351.833333333 410 339.5 c 128
 415.333333333 327.166666667 422.666666667 316.5 432 307.5 c 128
 441.333333333 298.5 452 291.333333333 464 286 c 128
 476 280.666666667 489 278 503 278 c 256
 517 278 530.166666667 280.666666667 542.5 286 c 128
 554.833333333 291.333333333 565.5 298.5 574.5 307.5 c 128
 583.5 316.5 590.666666667 327.166666667 596 339.5 c 128
 601.333333333 351.833333333 604 365 604 379 c 256
 604 393 601.333333333 406.166666667 596 418.5 c 128
 590.666666667 430.833333333 583.5 441.5 574.5 450.5 c 128
 565.5 459.5 554.833333333 466.666666667 542.5 472 c 128
 530.166666667 477.333333333 517 480 503 480 c 256
 489 480 476 477.333333333 464 472 c 128
 452 466.666666667 441.333333333 459.5 432 450.5 c 128
 422.666666667 441.5 415.333333333 430.833333333 410 418.5 c 128
 404.666666667 406.166666667 402 393 402 379 c 256
EndSplineSet
EndChar

StartChar: uni3005
Encoding: 12293 12293 102
Width: 1000
Flags: HW
LayerCount: 2
Fore
SplineSet
839 560 m 1
 827 527.333333333 813 493.5 797 458.5 c 128
 781 423.5 763.5 388.833333333 744.5 354.5 c 128
 725.5 320.166666667 705.666666667 286.666666667 685 254 c 128
 664.333333333 221.333333333 643.333333333 191 622 163 c 1
 650 143.666666667 676.166666667 124.333333333 700.5 105 c 128
 724.833333333 85.6666666667 745.666666667 67 763 49 c 1
 710 -19 l 1
 691.333333333 1.66666666667 667.5 23.6666666667 638.5 47 c 128
 609.5 70.3333333333 577.833333333 93.6666666667 543.5 117 c 128
 509.166666667 140.333333333 473.5 162.833333333 436.5 184.5 c 128
 399.5 206.166666667 363.333333333 225.333333333 328 242 c 1
 376 302 l 1
 404.666666667 288.666666667 434.166666667 273.833333333 464.5 257.5 c 128
 494.833333333 241.166666667 525 224 555 206 c 1
 571.666666667 228 588.166666667 251.666666667 604.5 277 c 128
 620.833333333 302.333333333 636.5 328.333333333 651.5 355 c 128
 666.5 381.666666667 680.666666667 408.333333333 694 435 c 128
 707.333333333 461.666666667 719.333333333 487.333333333 730 512 c 1
 391 512 l 1
 361 453.333333333 328 397.333333333 292 344 c 128
 256 290.666666667 216.333333333 243 173 201 c 1
 164.333333333 208.333333333 153.166666667 216.166666667 139.5 224.5 c 128
 125.833333333 232.833333333 113.666666667 239.666666667 103 245 c 1
 140.333333333 279.666666667 175 318.833333333 207 362.5 c 128
 239 406.166666667 268.333333333 451.833333333 295 499.5 c 128
 321.666666667 547.166666667 345.166666667 595.833333333 365.5 645.5 c 128
 385.833333333 695.166666667 403 743 417 789 c 1
 500 770 l 1
 490 740 478.833333333 709.666666667 466.5 679 c 128
 454.166666667 648.333333333 441 617.666666667 427 587 c 1
 768 587 l 1
 783 590 l 1
 839 560 l 1
EndSplineSet
EndChar

StartChar: uni3008
Encoding: 12296 12296 103
Width: 1000
Flags: HW
LayerCount: 2
Fore
SplineSet
948 -57 m 1
 885 -86 l 1
 588 380 l 1
 885 846 l 1
 948 817 l 1
 668 380 l 1
 948 -57 l 1
EndSplineSet
EndChar

StartChar: uni3009
Encoding: 12297 12297 104
Width: 1000
Flags: HW
LayerCount: 2
Fore
SplineSet
52 -57 m 1
 332 380 l 1
 52 817 l 1
 115 846 l 1
 412 380 l 1
 115 -86 l 1
 52 -57 l 1
EndSplineSet
EndChar

StartChar: uni300A
Encoding: 12298 12298 105
Width: 1000
Flags: HW
LayerCount: 2
Fore
SplineSet
806 -68 m 1
 752 -86 l 1
 530 380 l 1
 752 846 l 1
 806 828 l 1
 591 380 l 1
 806 -68 l 1
964 -68 m 1
 910 -86 l 1
 688 380 l 1
 910 846 l 1
 964 828 l 1
 749 380 l 1
 964 -68 l 1
EndSplineSet
EndChar

StartChar: uni300B
Encoding: 12299 12299 106
Width: 1000
Flags: HW
LayerCount: 2
Fore
SplineSet
194 -68 m 1
 409 380 l 1
 194 828 l 1
 248 846 l 1
 470 380 l 1
 248 -86 l 1
 194 -68 l 1
36 -68 m 1
 251 380 l 1
 36 828 l 1
 90 846 l 1
 312 380 l 1
 90 -86 l 1
 36 -68 l 1
EndSplineSet
EndChar

StartChar: uni300C
Encoding: 12300 12300 107
Width: 1000
Flags: HW
LayerCount: 2
Fore
SplineSet
650 846 m 1
 966 846 l 1
 966 777 l 1
 724 777 l 1
 724 199 l 1
 650 199 l 1
 650 846 l 1
EndSplineSet
EndChar

StartChar: uni300D
Encoding: 12301 12301 108
Width: 1000
Flags: HW
LayerCount: 2
Fore
SplineSet
350 -86 m 1
 34 -86 l 1
 34 -17 l 1
 276 -17 l 1
 276 561 l 1
 350 561 l 1
 350 -86 l 1
EndSplineSet
EndChar

StartChar: uni300E
Encoding: 12302 12302 109
Width: 1000
Flags: HW
LayerCount: 2
Fore
SplineSet
770 690 m 1
 770 183 l 1
 599 183 l 1
 599 846 l 1
 966 846 l 1
 966 690 l 1
 770 690 l 1
632 813 m 1
 632 216 l 1
 737 216 l 1
 737 723 l 1
 933 723 l 1
 933 813 l 1
 632 813 l 1
EndSplineSet
EndChar

StartChar: uni300F
Encoding: 12303 12303 110
Width: 1000
Flags: HW
LayerCount: 2
Fore
SplineSet
230 70 m 1
 230 577 l 1
 401 577 l 1
 401 -86 l 1
 34 -86 l 1
 34 70 l 1
 230 70 l 1
368 -53 m 1
 368 544 l 1
 263 544 l 1
 263 37 l 1
 67 37 l 1
 67 -53 l 1
 368 -53 l 1
EndSplineSet
EndChar

StartChar: uni301C
Encoding: 12316 12316 111
Width: 1000
Flags: HW
LayerCount: 2
Fore
SplineSet
697 245 m 0
 674.333333333 245 653.166666667 247.333333333 633.5 252 c 128
 613.833333333 256.666666667 595 263.5 577 272.5 c 128
 559 281.5 541.333333333 292.666666667 524 306 c 128
 506.666666667 319.333333333 489.333333333 334.666666667 472 352 c 0
 458.666666667 364.666666667 445.666666667 376.166666667 433 386.5 c 128
 420.333333333 396.833333333 407.333333333 405.5 394 412.5 c 128
 380.666666667 419.5 366.5 424.833333333 351.5 428.5 c 128
 336.5 432.166666667 320 434 302 434 c 0
 262 434 225.666666667 422 193 398 c 128
 160.333333333 374 133.666666667 342 113 302 c 1
 42 340 l 1
 74 397.333333333 112.166666667 440.833333333 156.5 470.5 c 128
 200.833333333 500.166666667 249.666666667 515 303 515 c 0
 348.333333333 515 388.5 506 423.5 488 c 128
 458.5 470 493.333333333 443.333333333 528 408 c 0
 541.333333333 395.333333333 554.333333333 383.833333333 567 373.5 c 128
 579.666666667 363.166666667 592.666666667 354.5 606 347.5 c 128
 619.333333333 340.5 633.5 335.166666667 648.5 331.5 c 128
 663.5 327.833333333 680 326 698 326 c 0
 738 326 774.333333333 338 807 362 c 128
 839.666666667 386 866.333333333 418 887 458 c 1
 958 420 l 1
 926 362.666666667 887.833333333 319.166666667 843.5 289.5 c 128
 799.166666667 259.833333333 750.333333333 245 697 245 c 0
EndSplineSet
EndChar

StartChar: uni3010
Encoding: 12304 12304 112
Width: 1000
Flags: HW
LayerCount: 2
Fore
SplineSet
966 846 m 1
 966 841 l 1
 938.666666667 818.333333333 913 791 889 759 c 128
 865 727 844 691.333333333 826 652 c 128
 808 612.666666667 793.833333333 570.166666667 783.5 524.5 c 128
 773.166666667 478.833333333 768 430.666666667 768 380 c 256
 768 329.333333333 773.166666667 281.166666667 783.5 235.5 c 128
 793.833333333 189.833333333 808 147.333333333 826 108 c 128
 844 68.6666666667 865 33 889 1 c 128
 913 -31 938.666666667 -58.3333333333 966 -81 c 1
 966 -86 l 1
 666 -86 l 1
 666 846 l 1
 966 846 l 1
EndSplineSet
EndChar

StartChar: uni3011
Encoding: 12305 12305 113
Width: 1000
Flags: HW
LayerCount: 2
Fore
SplineSet
334 -86 m 1
 34 -86 l 1
 34 -81 l 1
 61.3333333333 -58.3333333333 87 -31 111 1 c 128
 135 33 156 68.6666666667 174 108 c 128
 192 147.333333333 206.166666667 189.833333333 216.5 235.5 c 128
 226.833333333 281.166666667 232 329.333333333 232 380 c 256
 232 430.666666667 226.833333333 478.833333333 216.5 524.5 c 128
 206.166666667 570.166666667 192 612.666666667 174 652 c 128
 156 691.333333333 135 727 111 759 c 128
 87 791 61.3333333333 818.333333333 34 841 c 1
 34 846 l 1
 334 846 l 1
 334 -86 l 1
EndSplineSet
EndChar

StartChar: uni31D0
Encoding: 12752 12752 114
Width: 1000
Flags: HW
LayerCount: 2
Fore
SplineSet
915 418 m 1
 915 342 l 1
 80 342 l 1
 80 418 l 1
 915 418 l 1
EndSplineSet
EndChar

StartChar: uni31D1
Encoding: 12753 12753 115
Width: 1000
Flags: HW
LayerCount: 2
Fore
SplineSet
542 805 m 1
 542 -42 l 1
 464 -42 l 1
 464 805 l 1
 542 805 l 1
EndSplineSet
EndChar

StartChar: uni31D2
Encoding: 12754 12754 116
Width: 1000
Flags: HW
LayerCount: 2
Fore
SplineSet
593 747 m 1
 568.333333333 693.666666667 539.666666667 643.166666667 507 595.5 c 128
 474.333333333 547.833333333 438.833333333 503.333333333 400.5 462 c 128
 362.166666667 420.666666667 321.333333333 382.833333333 278 348.5 c 128
 234.666666667 314.166666667 189.666666667 283.333333333 143 256 c 1
 137.666666667 264.666666667 129.666666667 275.666666667 119 289 c 128
 108.333333333 302.333333333 98.6666666667 313 90 321 c 1
 136 344.333333333 180.166666667 371.833333333 222.5 403.5 c 128
 264.833333333 435.166666667 304.333333333 470 341 508 c 128
 377.666666667 546 411 587.166666667 441 631.5 c 128
 471 675.833333333 497 722.333333333 519 771 c 1
 593 747 l 1
EndSplineSet
EndChar

StartChar: uni31D4
Encoding: 12756 12756 117
Width: 1000
VWidth: 0
Flags: H
LayerCount: 2
Fore
SplineSet
340 613 m 1
 371.333333333 585.666666667 405.5 556.166666667 442.5 524.5 c 128
 479.5 492.833333333 516 461 552 429 c 128
 588 397 622.166666667 366.333333333 654.5 337 c 128
 686.833333333 307.666666667 714 281.333333333 736 258 c 1
 668 199 l 1
 647.333333333 222.333333333 621.333333333 249.166666667 590 279.5 c 128
 558.666666667 309.833333333 525.333333333 341.5 490 374.5 c 128
 454.666666667 407.5 418.666666667 440.5 382 473.5 c 128
 345.333333333 506.5 310.666666667 537.333333333 278 566 c 1
 340 613 l 1
EndSplineSet
EndChar

StartChar: uni31D6
Encoding: 12758 12758 118
Width: 1000
Flags: HW
LayerCount: 2
Fore
SplineSet
856 608 m 1
 850 587.333333333 843.333333333 566 836 544 c 128
 828.666666667 522 821.166666667 500.5 813.5 479.5 c 128
 805.833333333 458.5 798.333333333 438.5 791 419.5 c 128
 783.666666667 400.5 776.333333333 383.333333333 769 368 c 1
 700 386 l 1
 709.333333333 406.666666667 719 431.5 729 460.5 c 128
 739 489.5 748.333333333 519 757 549 c 1
 159 549 l 1
 159 622 l 1
 785 622 l 1
 799 625 l 1
 856 608 l 1
EndSplineSet
EndChar

StartChar: u1F6C8
Encoding: 128712 128712 119
Width: 1000
Flags: HW
LayerCount: 2
Fore
SplineSet
457.599609375 494.879882812 m 1
 542.799804688 494.879882812 l 1
 542.799804688 100.879882812 l 1
 457.599609375 100.879882812 l 1
 457.599609375 494.879882812 l 1
500 -86 m 256
 436 -86 375.666666667 -73.8333333333 319 -49.5 c 128
 262.333333333 -25.1666666667 212.833333333 8.16666666667 170.5 50.5 c 128
 128.166666667 92.8333333333 94.8333333333 142.333333333 70.5 199 c 128
 46.1666666667 255.666666667 34 316 34 380 c 256
 34 444 46.1666666667 504.333333333 70.5 561 c 128
 94.8333333333 617.666666667 128.166666667 667.166666667 170.5 709.5 c 128
 212.833333333 751.833333333 262.333333333 785.166666667 319 809.5 c 128
 375.666666667 833.833333333 436 846 500 846 c 256
 564 846 624.333333333 833.833333333 681 809.5 c 128
 737.666666667 785.166666667 787.166666667 751.833333333 829.5 709.5 c 128
 871.833333333 667.166666667 905.166666667 617.666666667 929.5 561 c 128
 953.833333333 504.333333333 966 444 966 380 c 0
 966 315.333333333 953.666666667 254.666666667 929 198 c 128
 904.333333333 141.333333333 870.833333333 92 828.5 50 c 128
 786.166666667 8 736.833333333 -25.1666666667 680.5 -49.5 c 128
 624.166666667 -73.8333333333 564 -86 500 -86 c 256
500 -15.5478515625 m 256
 554.68359375 -15.5478515625 606.026367188 -5.21875 654.026367188 15.4404296875 c 128
 702.02734375 36.0986328125 743.951171875 64.3515625 779.799804688 100.200195312 c 128
 815.6484375 136.048828125 843.901367188 177.97265625 864.559570312 225.973632812 c 128
 885.21875 273.973632812 895.547851562 325.31640625 895.547851562 380 c 256
 895.547851562 434.68359375 885.21875 486.026367188 864.559570312 534.026367188 c 128
 843.901367188 582.02734375 815.6484375 623.951171875 779.799804688 659.799804688 c 128
 743.951171875 695.6484375 702.02734375 723.901367188 654.026367188 744.559570312 c 128
 606.026367188 765.21875 554.68359375 775.547851562 500 775.547851562 c 0
 444.708007812 775.547851562 393.0625 765.06640625 345.0625 744.104492188 c 128
 297.061523438 723.141601562 255.2890625 694.737304688 219.745117188 658.888671875 c 128
 184.200195312 623.040039062 156.098632812 581.115234375 135.440429688 533.115234375 c 128
 114.78125 485.114257812 104.452148438 434.076171875 104.452148438 380 c 0
 104.452148438 325.31640625 114.78125 273.973632812 135.440429688 225.973632812 c 128
 156.098632812 177.97265625 184.3515625 136.048828125 220.200195312 100.200195312 c 128
 256.048828125 64.3515625 297.97265625 36.0986328125 345.973632812 15.4404296875 c 128
 393.973632812 -5.21875 445.31640625 -15.5478515625 500 -15.5478515625 c 256
500.859375 563.319335938 m 0
 485.66015625 563.319335938 473.119140625 567.880859375 463.240234375 577 c 128
 453.359375 586.120117188 448.419921875 597.900390625 448.419921875 612.33984375 c 0
 448.419921875 627.540039062 453.359375 639.890625 463.240234375 649.390625 c 128
 473.119140625 658.890625 485.66015625 663.640625 500.859375 663.640625 c 0
 517.580078125 663.640625 530.880859375 658.890625 540.759765625 649.390625 c 128
 550.640625 639.890625 555.580078125 627.540039062 555.580078125 612.33984375 c 0
 555.580078125 597.900390625 550.640625 586.120117188 540.759765625 577 c 128
 530.880859375 567.880859375 517.580078125 563.319335938 500.859375 563.319335938 c 0
EndSplineSet
EndChar

StartChar: uni232B
Encoding: 9003 9003 120
Width: 1000
Flags: HWO
LayerCount: 2
Fore
SplineSet
200 780 m 1
 1000 780 l 1
 1000 -20 l 1
 200 -20 l 1
 -137 378.8203125 l 1
 200 780 l 1
931 711 m 1
 243 711 l 1
 -31 378.8203125 l 1
 243 49 l 1
 931 49 l 1
 931 711 l 1
599.211914062 321.22265625 m 1
 430.431640625 152.443359375 l 1
 372.83203125 210.04296875 l 1
 541.611328125 378.823242188 l 1
 372.772460938 548.862304688 l 1
 430.493164062 607.54296875 l 1
 599.211914062 437.624023438 l 1
 769.19140625 607.602539062 l 1
 827.991210938 548.802734375 l 1
 658.012695312 378.823242188 l 1
 827.931640625 210.104492188 l 1
 769.250976562 152.383789062 l 1
 599.211914062 321.22265625 l 1
EndSplineSet
EndChar
